<svg xmlns="http://www.w3.org/2000/svg" style="display: none;"><symbol id="email" viewBox="0 0 512 512"><title>email</title><g> <g> <path d="M331.756,277.251l-42.881,43.026c-17.389,17.45-47.985,17.826-65.75,0l-42.883-43.026L26.226,431.767 C31.959,434.418,38.28,436,45,436h422c6.72,0,13.039-1.58,18.77-4.232L331.756,277.251z"/> </g> </g><g> <g> <path d="M467,76H45c-6.72,0-13.041,1.582-18.772,4.233l164.577,165.123c0.011,0.011,0.024,0.013,0.035,0.024 c0.011,0.011,0.013,0.026,0.013,0.026l53.513,53.69c5.684,5.684,17.586,5.684,23.27,0l53.502-53.681c0,0,0.013-0.024,0.024-0.035 c0,0,0.024-0.013,0.035-0.024L485.77,80.232C480.039,77.58,473.72,76,467,76z"/> </g> </g><g> <g> <path d="M4.786,101.212C1.82,107.21,0,113.868,0,121v270c0,7.132,1.818,13.79,4.785,19.788l154.283-154.783L4.786,101.212z"/> </g> </g><g> <g> <path d="M507.214,101.21L352.933,256.005L507.214,410.79C510.18,404.792,512,398.134,512,391V121 C512,113.866,510.18,107.208,507.214,101.21z"/> </g> </g></symbol><symbol id="user" viewBox="0 0 55 55"><title>user</title><path d="M55,27.5C55,12.337,42.663,0,27.5,0S0,12.337,0,27.5c0,8.009,3.444,15.228,8.926,20.258l-0.026,0.023l0.892,0.752 c0.058,0.049,0.121,0.089,0.179,0.137c0.474,0.393,0.965,0.766,1.465,1.127c0.162,0.117,0.324,0.234,0.489,0.348 c0.534,0.368,1.082,0.717,1.642,1.048c0.122,0.072,0.245,0.142,0.368,0.212c0.613,0.349,1.239,0.678,1.88,0.98 c0.047,0.022,0.095,0.042,0.142,0.064c2.089,0.971,4.319,1.684,6.651,2.105c0.061,0.011,0.122,0.022,0.184,0.033 c0.724,0.125,1.456,0.225,2.197,0.292c0.09,0.008,0.18,0.013,0.271,0.021C25.998,54.961,26.744,55,27.5,55 c0.749,0,1.488-0.039,2.222-0.098c0.093-0.008,0.186-0.013,0.279-0.021c0.735-0.067,1.461-0.164,2.178-0.287 c0.062-0.011,0.125-0.022,0.187-0.034c2.297-0.412,4.495-1.109,6.557-2.055c0.076-0.035,0.153-0.068,0.229-0.104 c0.617-0.29,1.22-0.603,1.811-0.936c0.147-0.083,0.293-0.167,0.439-0.253c0.538-0.317,1.067-0.648,1.581-1 c0.185-0.126,0.366-0.259,0.549-0.391c0.439-0.316,0.87-0.642,1.289-0.983c0.093-0.075,0.193-0.14,0.284-0.217l0.915-0.764 l-0.027-0.023C51.523,42.802,55,35.55,55,27.5z M2,27.5C2,13.439,13.439,2,27.5,2S53,13.439,53,27.5 c0,7.577-3.325,14.389-8.589,19.063c-0.294-0.203-0.59-0.385-0.893-0.537l-8.467-4.233c-0.76-0.38-1.232-1.144-1.232-1.993v-2.957 c0.196-0.242,0.403-0.516,0.617-0.817c1.096-1.548,1.975-3.27,2.616-5.123c1.267-0.602,2.085-1.864,2.085-3.289v-3.545 c0-0.867-0.318-1.708-0.887-2.369v-4.667c0.052-0.52,0.236-3.448-1.883-5.864C34.524,9.065,31.541,8,27.5,8 s-7.024,1.065-8.867,3.168c-2.119,2.416-1.935,5.346-1.883,5.864v4.667c-0.568,0.661-0.887,1.502-0.887,2.369v3.545 c0,1.101,0.494,2.128,1.34,2.821c0.81,3.173,2.477,5.575,3.093,6.389v2.894c0,0.816-0.445,1.566-1.162,1.958l-7.907,4.313 c-0.252,0.137-0.502,0.297-0.752,0.476C5.276,41.792,2,35.022,2,27.5z"/></symbol><symbol id="search" viewBox="0 0 56.966 56.966"><title>search</title><path d="M55.146,51.887L41.588,37.786c3.486-4.144,5.396-9.358,5.396-14.786c0-12.682-10.318-23-23-23s-23,10.318-23,23 s10.318,23,23,23c4.761,0,9.298-1.436,13.177-4.162l13.661,14.208c0.571,0.593,1.339,0.92,2.162,0.92 c0.779,0,1.518-0.297,2.079-0.837C56.255,54.982,56.293,53.08,55.146,51.887z M23.984,6c9.374,0,17,7.626,17,17s-7.626,17-17,17 s-17-7.626-17-17S14.61,6,23.984,6z"/></symbol><symbol id="home" viewBox="0 0 59.365 59.365"><title>home</title><path d="M58.363,26.632l-9.681-8.989V6.365h-8v3.849L29.682,0L1.002,26.632c-0.404,0.376-0.428,1.009-0.052,1.414 c0.375,0.404,1.008,0.427,1.414,0.052l4.319-4.011v3.278v32h16V35.302c0-1.07,0.867-1.937,1.937-1.937h10.126 c1.07,0,1.937,0.867,1.937,1.937v24.063h16v-32v-3.278l4.319,4.011c0.192,0.179,0.437,0.267,0.681,0.267 c0.269,0,0.536-0.107,0.732-0.319C58.791,27.641,58.767,27.008,58.363,26.632z"/></symbol><symbol id="file" viewBox="0 0 60 60"><title>file</title><path d="M38.914,0H6.5v60h47V14.586L38.914,0z M17.5,14h10c0.552,0,1,0.447,1,1s-0.448,1-1,1h-10c-0.552,0-1-0.447-1-1 S16.948,14,17.5,14z M42.5,48h-25c-0.552,0-1-0.447-1-1s0.448-1,1-1h25c0.552,0,1,0.447,1,1S43.052,48,42.5,48z M42.5,40h-25 c-0.552,0-1-0.447-1-1s0.448-1,1-1h25c0.552,0,1,0.447,1,1S43.052,40,42.5,40z M42.5,32h-25c-0.552,0-1-0.447-1-1s0.448-1,1-1h25 c0.552,0,1,0.447,1,1S43.052,32,42.5,32z M42.5,24h-25c-0.552,0-1-0.447-1-1s0.448-1,1-1h25c0.552,0,1,0.447,1,1S43.052,24,42.5,24z M37.5,16V2l14,14H37.5z"/></symbol><symbol id="add" viewBox="0 0 42 42"><title>add</title><polygon points="42,19 23,19 23,0 19,0 19,19 0,19 0,23 19,23 19,42 23,42 23,23 42,23 "/></symbol><symbol id="placeholder" viewBox="0 0 54.757 54.757"><title>placeholder</title><path d="M40.94,5.617C37.318,1.995,32.502,0,27.38,0c-5.123,0-9.938,1.995-13.56,5.617c-6.703,6.702-7.536,19.312-1.804,26.952 L27.38,54.757L42.721,32.6C48.476,24.929,47.643,12.319,40.94,5.617z M27.557,26c-3.859,0-7-3.141-7-7s3.141-7,7-7s7,3.141,7,7 S31.416,26,27.557,26z"/></symbol><symbol id="like" viewBox="0 0 51.997 51.997"><title>like</title><path d="M51.911,16.242C51.152,7.888,45.239,1.827,37.839,1.827c-4.93,0-9.444,2.653-11.984,6.905 c-2.517-4.307-6.846-6.906-11.697-6.906c-7.399,0-13.313,6.061-14.071,14.415c-0.06,0.369-0.306,2.311,0.442,5.478 c1.078,4.568,3.568,8.723,7.199,12.013l18.115,16.439l18.426-16.438c3.631-3.291,6.121-7.445,7.199-12.014 C52.216,18.553,51.97,16.611,51.911,16.242z"/></symbol><symbol id="success" viewBox="0 0 52 52"><title>success</title><path d="M26,0C11.664,0,0,11.663,0,26s11.664,26,26,26s26-11.663,26-26S40.336,0,26,0z M40.495,17.329l-16,18 C24.101,35.772,23.552,36,22.999,36c-0.439,0-0.88-0.144-1.249-0.438l-10-8c-0.862-0.689-1.002-1.948-0.312-2.811 c0.689-0.863,1.949-1.003,2.811-0.313l8.517,6.813l14.739-16.581c0.732-0.826,1.998-0.9,2.823-0.166 C41.154,15.239,41.229,16.503,40.495,17.329z"/></symbol><symbol id="play-button" viewBox="0 0 41.999 41.999"><title>play-button</title><path d="M36.068,20.176l-29-20C6.761-0.035,6.363-0.057,6.035,0.114C5.706,0.287,5.5,0.627,5.5,0.999v40 c0,0.372,0.206,0.713,0.535,0.886c0.146,0.076,0.306,0.114,0.465,0.114c0.199,0,0.397-0.06,0.568-0.177l29-20 c0.271-0.187,0.432-0.494,0.432-0.823S36.338,20.363,36.068,20.176z"/></symbol><symbol id="star" viewBox="0 0 55.867 55.867"><title>star</title><path d="M55.818,21.578c-0.118-0.362-0.431-0.626-0.808-0.681L36.92,18.268L28.83,1.876c-0.168-0.342-0.516-0.558-0.896-0.558 s-0.729,0.216-0.896,0.558l-8.091,16.393l-18.09,2.629c-0.377,0.055-0.689,0.318-0.808,0.681c-0.117,0.361-0.02,0.759,0.253,1.024 l13.091,12.76l-3.091,18.018c-0.064,0.375,0.09,0.754,0.397,0.978c0.309,0.226,0.718,0.255,1.053,0.076l16.182-8.506l16.18,8.506 c0.146,0.077,0.307,0.115,0.466,0.115c0.207,0,0.413-0.064,0.588-0.191c0.308-0.224,0.462-0.603,0.397-0.978l-3.09-18.017 l13.091-12.761C55.838,22.336,55.936,21.939,55.818,21.578z"/></symbol><symbol id="error" viewBox="0 0 51.976 51.976"><title>error</title><path d="M44.373,7.603c-10.137-10.137-26.632-10.138-36.77,0c-10.138,10.138-10.137,26.632,0,36.77s26.632,10.138,36.77,0 C54.51,34.235,54.51,17.74,44.373,7.603z M36.241,36.241c-0.781,0.781-2.047,0.781-2.828,0l-7.425-7.425l-7.778,7.778 c-0.781,0.781-2.047,0.781-2.828,0c-0.781-0.781-0.781-2.047,0-2.828l7.778-7.778l-7.425-7.425c-0.781-0.781-0.781-2.048,0-2.828 c0.781-0.781,2.047-0.781,2.828,0l7.425,7.425l7.071-7.071c0.781-0.781,2.047-0.781,2.828,0c0.781,0.781,0.781,2.047,0,2.828 l-7.071,7.071l7.425,7.425C37.022,34.194,37.022,35.46,36.241,36.241z"/></symbol><symbol id="plus" viewBox="0 0 52 52"><title>plus</title><path d="M26,0C11.664,0,0,11.663,0,26s11.664,26,26,26s26-11.663,26-26S40.336,0,26,0z M38.5,28H28v11c0,1.104-0.896,2-2,2 s-2-0.896-2-2V28H13.5c-1.104,0-2-0.896-2-2s0.896-2,2-2H24V14c0-1.104,0.896-2,2-2s2,0.896,2,2v10h10.5c1.104,0,2,0.896,2,2 S39.604,28,38.5,28z"/></symbol><symbol id="photo-camera" viewBox="0 0 60 60"><title>photo-camera</title><path d="M30,20.5c-6.617,0-12,5.383-12,12s5.383,12,12,12s12-5.383,12-12S36.617,20.5,30,20.5z"/><path d="M55.201,15.5h-8.524l-4-10H17.323l-4,10H12v-5H6v5H4.799C2.152,15.5,0,17.652,0,20.299v29.368 C0,52.332,2.168,54.5,4.833,54.5h50.334c2.665,0,4.833-2.168,4.833-4.833V20.299C60,17.652,57.848,15.5,55.201,15.5z M10,15.5H8v-3 h2V15.5z M30,50.5c-9.925,0-18-8.075-18-18s8.075-18,18-18s18,8.075,18,18S39.925,50.5,30,50.5z M52,27.5c-2.206,0-4-1.794-4-4 s1.794-4,4-4s4,1.794,4,4S54.206,27.5,52,27.5z"/></symbol><symbol id="idea" viewBox="0 0 54 54"><title>idea</title><path d="M27,6c0.553,0,1-0.447,1-1V1c0-0.553-0.447-1-1-1s-1,0.447-1,1v4C26,5.553,26.447,6,27,6z"/><path d="M51,24h-4c-0.553,0-1,0.447-1,1s0.447,1,1,1h4c0.553,0,1-0.447,1-1S51.553,24,51,24z"/><path d="M7,24H3c-0.553,0-1,0.447-1,1s0.447,1,1,1h4c0.553,0,1-0.447,1-1S7.553,24,7,24z"/><path d="M43.264,7.322l-2.828,2.828c-0.391,0.391-0.391,1.023,0,1.414c0.195,0.195,0.451,0.293,0.707,0.293 s0.512-0.098,0.707-0.293l2.828-2.828c0.391-0.391,0.391-1.023,0-1.414S43.654,6.932,43.264,7.322z"/><path d="M12.15,38.436l-2.828,2.828c-0.391,0.391-0.391,1.023,0,1.414c0.195,0.195,0.451,0.293,0.707,0.293 s0.512-0.098,0.707-0.293l2.828-2.828c0.391-0.391,0.391-1.023,0-1.414S12.541,38.045,12.15,38.436z"/><path d="M41.85,38.436c-0.391-0.391-1.023-0.391-1.414,0s-0.391,1.023,0,1.414l2.828,2.828c0.195,0.195,0.451,0.293,0.707,0.293 s0.512-0.098,0.707-0.293c0.391-0.391,0.391-1.023,0-1.414L41.85,38.436z"/><path d="M12.15,11.564c0.195,0.195,0.451,0.293,0.707,0.293s0.512-0.098,0.707-0.293c0.391-0.391,0.391-1.023,0-1.414l-2.828-2.828 c-0.391-0.391-1.023-0.391-1.414,0s-0.391,1.023,0,1.414L12.15,11.564z"/><path d="M27,13c-6.617,0-12,5.383-12,12c0,0.553,0.447,1,1,1s1-0.447,1-1c0-5.514,4.486-10,10-10c0.553,0,1-0.447,1-1 S27.553,13,27,13z"/><path d="M27,8c-9.374,0-17,7.626-17,17c0,7.112,4.391,13.412,11,15.9V43v7c0,0.553,0.447,1,1,1h1v2c0,0.553,0.447,1,1,1h6 c0.553,0,1-0.447,1-1v-2h1c0.553,0,1-0.447,1-1v-7v-2.1c6.609-2.488,11-8.788,11-15.9C44,15.626,36.374,8,27,8z M31.688,39.242 C31.277,39.377,31,39.761,31,40.192V42h-8v-1.808c0-0.432-0.277-0.815-0.688-0.95C16.145,37.214,12,31.49,12,25 c0-8.271,6.729-15,15-15s15,6.729,15,15C42,31.49,37.855,37.214,31.688,39.242z"/></symbol><symbol id="file-1" viewBox="0 0 60 60"><title>file-1</title><polygon points="49,12 49,0 6,0 6,55 9,55 9,3 40,3 "/><path d="M39.414,5H11v55h43V19.586L39.414,5z M20,17h10c0.552,0,1,0.447,1,1s-0.448,1-1,1H20c-0.552,0-1-0.447-1-1S19.448,17,20,17 z M45,51H20c-0.552,0-1-0.447-1-1s0.448-1,1-1h25c0.552,0,1,0.447,1,1S45.552,51,45,51z M45,43H20c-0.552,0-1-0.447-1-1 s0.448-1,1-1h25c0.552,0,1,0.447,1,1S45.552,43,45,43z M45,35H20c-0.552,0-1-0.447-1-1s0.448-1,1-1h25c0.552,0,1,0.447,1,1 S45.552,35,45,35z M45,27H20c-0.552,0-1-0.447-1-1s0.448-1,1-1h25c0.552,0,1,0.447,1,1S45.552,27,45,27z M38,21V7l14,14H38z"/></symbol><symbol id="settings" viewBox="0 0 54 54"><title>settings</title><path d="M27,18c-4.962,0-9,4.038-9,9s4.038,9,9,9s9-4.038,9-9S31.962,18,27,18z"/><path d="M51.22,21h-2.018c-0.515-1.911-1.272-3.74-2.26-5.457l1.426-1.426c0.525-0.525,0.814-1.224,0.814-1.966 c0-0.743-0.289-1.441-0.814-1.967l-4.553-4.553c-1.05-1.049-2.881-1.051-3.933,0l-1.426,1.426C36.74,6.07,34.911,5.313,33,4.798 V2.78C33,1.247,31.753,0,30.22,0H23.78C22.247,0,21,1.247,21,2.78v2.018c-1.911,0.515-3.74,1.272-5.457,2.26l-1.426-1.426 c-1.051-1.052-2.883-1.05-3.933,0l-4.553,4.553c-0.525,0.525-0.814,1.224-0.814,1.967c0,0.742,0.289,1.44,0.814,1.966l1.426,1.426 C6.07,17.26,5.312,19.089,4.798,21H2.78C1.247,21,0,22.247,0,23.78v6.438C0,31.752,1.247,33,2.78,33h2.018 c0.515,1.911,1.272,3.74,2.26,5.457l-1.426,1.426c-0.525,0.525-0.814,1.224-0.814,1.966c0,0.743,0.289,1.441,0.814,1.967 l4.553,4.553c1.05,1.051,2.882,1.052,3.933,0l1.426-1.426c1.717,0.987,3.546,1.745,5.457,2.26v2.017C21,52.752,22.247,54,23.78,54 h6.439c1.533,0,2.78-1.248,2.78-2.781v-2.017c1.911-0.515,3.74-1.272,5.457-2.26l1.426,1.426c1.052,1.052,2.882,1.05,3.933,0 l4.553-4.553c0.525-0.525,0.814-1.224,0.814-1.967c0-0.742-0.289-1.44-0.814-1.966l-1.426-1.426 c0.987-1.717,1.745-3.546,2.26-5.457h2.018c1.533,0,2.78-1.248,2.78-2.781V23.78C54,22.247,52.753,21,51.22,21z M39,27 c0,6.617-5.383,12-12,12s-12-5.383-12-12s5.383-12,12-12S39,20.383,39,27z"/></symbol><symbol id="users" viewBox="0 0 60 60"><title>users</title><path d="M55.014,45.389l-9.553-4.776C44.56,40.162,44,39.256,44,38.248v-3.381c0.229-0.28,0.47-0.599,0.719-0.951 c1.239-1.75,2.232-3.698,2.954-5.799C49.084,27.47,50,26.075,50,24.5v-4c0-0.963-0.36-1.896-1-2.625v-5.319 c0.056-0.55,0.276-3.824-2.092-6.525C44.854,3.688,41.521,2.5,37,2.5s-7.854,1.188-9.908,3.53 c-2.368,2.701-2.148,5.976-2.092,6.525v5.319c-0.64,0.729-1,1.662-1,2.625v4c0,1.217,0.553,2.352,1.497,3.109 c0.916,3.627,2.833,6.36,3.503,7.237v3.309c0,0.968-0.528,1.856-1.377,2.32l-8.921,4.866c-2.9,1.582-4.701,4.616-4.701,7.92V57.5 h46v-4.043C60,50.019,58.089,46.927,55.014,45.389z"/><path d="M17.983,44.025l8.921-4.866c0.367-0.201,0.596-0.586,0.596-1.004v-2.814c-0.885-1.232-2.446-3.712-3.337-6.91 C23.1,27.399,22.5,25.994,22.5,24.5v-4c0-1.124,0.352-2.219,1-3.141v-4.733c-0.034-0.383-0.074-1.269,0.096-2.395 C22.219,9.751,20.687,9.5,19,9.5c-10.389,0-10.994,8.855-11,9v4.579c-0.648,0.706-1,1.521-1,2.33v3.454 c0,1.079,0.483,2.085,1.311,2.765c0.825,3.11,2.854,5.46,3.644,6.285v2.743c0,0.787-0.428,1.509-1.171,1.915l-6.653,4.173 C1.583,48.134,0,50.801,0,53.703V57.5h12.5v-4.238C12.5,49.409,14.601,45.87,17.983,44.025z"/></symbol><symbol id="folder" viewBox="0 0 60 60"><title>folder</title><path d="M57.49,27H54v-7.268C54,18.226,52.774,17,51.268,17H50v-2.414V0H10v2H9H8H7v2H6H4v2v4H2.732C1.226,10,0,11.226,0,12.732 v45.23l0.058,0.002c0.078,0.367,0.234,0.719,0.471,1.029C1.018,59.634,1.76,60,2.565,60h44.759c1.156,0,2.174-0.779,2.45-1.813 L60,30.149v-0.177C60,28.25,58.944,27,57.49,27z M18,5h10c0.552,0,1,0.447,1,1s-0.448,1-1,1H18c-0.552,0-1-0.447-1-1S17.448,5,18,5z M18,12h24c0.552,0,1,0.447,1,1s-0.448,1-1,1H18c-0.552,0-1-0.447-1-1S17.448,12,18,12z M18,19h24c0.552,0,1,0.447,1,1s-0.448,1-1,1 H18c-0.552,0-1-0.447-1-1S17.448,19,18,19z M2,51.526V12.732C2,12.328,2.329,12,2.732,12H4v34.041L2,51.526z M6,6h1v31.813l-1,2.743 V6z M52,27h-5H12.731c-1.156,0-2.174,0.779-2.45,1.813L9,32.328V4h1v6v2v13v1h40v-1v-6h1.268C51.671,19,52,19.328,52,19.732V27z"/></symbol><symbol id="hold" viewBox="0 0 59.066 59.066"><title>hold</title><path d="M52.846,27.12C52.415,26.398,51.691,26,50.793,26c-1.667,0.006-3.673,0.667-5.235,1.724 c-1.441,0.975-3.53,2.782-5.293,5.863c-0.331,0.578-0.874,0.97-1.455,1.063c-0.002-0.134-0.001-0.287-0.001-0.431 c0-0.31,0.001-0.678-0.012-1.084V11c0-2.206-1.794-4-4-4s-4,1.794-4,4v15.5c0,0.275-0.225,0.5-0.5,0.5s-0.5-0.225-0.5-0.5V4 c0-2.206-1.794-4-4-4s-4,1.794-4,4v22.5c0,0.275-0.225,0.5-0.5,0.5s-0.5-0.225-0.5-0.5v-18c0-1.93-1.57-3.5-3.5-3.5 s-3.5,1.57-3.5,3.5v20c0,0.275-0.225,0.5-0.5,0.5s-0.5-0.225-0.5-0.5V16c0-1.93-1.57-3.5-3.51-3.5c-1.93,0-3.5,1.57-3.5,3.5 l0.002,27.197c0.968,13.983,9.545,15.869,17.808,15.869c6.846,0,12.995-3.396,16.027-8.824c0.39-0.63,1.445-2.288,2.696-4.254 c3.128-4.913,5.748-9.041,6.135-9.775c0.863-1.634,1.826-2.911,2.784-3.693c0.867-0.708,1.397-1.611,1.828-2.404 C53.289,29.704,53.483,28.189,52.846,27.12z"/></symbol><symbol id="picture" viewBox="0 0 58 58"><title>picture</title><path d="M57,6H1C0.448,6,0,6.447,0,7v44c0,0.553,0.448,1,1,1h56c0.552,0,1-0.447,1-1V7C58,6.447,57.552,6,57,6z M16,17 c3.071,0,5.569,2.498,5.569,5.569c0,3.07-2.498,5.568-5.569,5.568s-5.569-2.498-5.569-5.568C10.431,19.498,12.929,17,16,17z M52.737,35.676c-0.373,0.406-1.006,0.435-1.413,0.062L40.063,25.414l-9.181,10.054l4.807,4.807c0.391,0.391,0.391,1.023,0,1.414 s-1.023,0.391-1.414,0L23.974,31.389L7.661,45.751C7.471,45.918,7.235,46,7,46c-0.277,0-0.553-0.114-0.751-0.339 c-0.365-0.415-0.325-1.047,0.09-1.412l17.017-14.982c0.396-0.348,0.994-0.329,1.368,0.044l4.743,4.743l9.794-10.727 c0.179-0.196,0.429-0.313,0.694-0.325c0.264-0.006,0.524,0.083,0.72,0.262l12,11C53.083,34.636,53.11,35.269,52.737,35.676z"/></symbol><symbol id="database" viewBox="0 0 58.201 58.201"><title>database</title><path d="M31.707,33.07c-0.87,0.027-1.74,0.042-2.606,0.042c-0.869,0-1.742-0.014-2.614-0.042 c-7.341-0.201-13.191-1.238-17.403-2.717C7.104,29.685,5.409,28.899,4.1,28v7.111v0.5v0.5V37.4c2.846,2.971,12.394,5.711,25,5.711 s22.154-2.74,25-5.711v-1.289v-0.5v-0.5V28c-1.318,0.905-3.028,1.697-5.025,2.367C44.865,31.839,39.027,32.87,31.707,33.07z"/><path d="M4.1,14.889V22v0.5V23v1.289c2.638,2.754,11.033,5.31,22.286,5.668c0.115,0.004,0.233,0.005,0.349,0.008 c0.326,0.009,0.651,0.018,0.982,0.023C28.174,29.996,28.635,30,29.1,30s0.926-0.004,1.383-0.011 c0.33-0.005,0.656-0.014,0.982-0.023c0.116-0.003,0.234-0.005,0.349-0.008c11.253-0.359,19.648-2.915,22.286-5.668V23v-0.5V22 v-7.111C49.233,18.232,38.944,20,29.1,20S8.968,18.232,4.1,14.889z"/><path d="M53.965,8.542C52.843,4.241,44.215,0,29.1,0C14.023,0,5.404,4.22,4.247,8.51C4.162,8.657,4.1,8.818,4.1,9v0.5v1.806 C6.937,14.267,16.417,17,29.1,17s22.164-2.733,25-5.694V9.5V9C54.1,8.832,54.044,8.681,53.965,8.542z"/><path d="M4.1,41v8.201c0,0.162,0.043,0.315,0.117,0.451c1.181,4.895,11.747,8.549,24.883,8.549c13.106,0,23.655-3.639,24.875-8.516 c0.08-0.144,0.125-0.309,0.125-0.484v-8.199c-4.135,2.911-12.655,5.199-25,5.199C16.754,46.201,8.234,43.911,4.1,41z"/></symbol><symbol id="time" viewBox="0 0 60 60"><title>time</title><path d="M30,0.061c-16.542,0-30,13.458-30,30s13.458,29.879,30,29.879s30-13.337,30-29.879S46.542,0.061,30,0.061z M32,30.939 c0,1.104-0.896,2-2,2H14c-1.104,0-2-0.896-2-2s0.896-2,2-2h14v-22c0-1.104,0.896-2,2-2s2,0.896,2,2V30.939z"/></symbol><symbol id="add-1" viewBox="0 0 42 42"><title>add-1</title><path d="M37.059,16H26V4.941C26,2.224,23.718,0,21,0s-5,2.224-5,4.941V16H4.941C2.224,16,0,18.282,0,21s2.224,5,4.941,5H16v11.059 C16,39.776,18.282,42,21,42s5-2.224,5-4.941V26h11.059C39.776,26,42,23.718,42,21S39.776,16,37.059,16z"/></symbol><symbol id="settings-1" viewBox="0 0 54 54"><title>settings-1</title><path d="M51.22,21h-5.052c-0.812,0-1.481-0.447-1.792-1.197s-0.153-1.54,0.42-2.114l3.572-3.571 c0.525-0.525,0.814-1.224,0.814-1.966c0-0.743-0.289-1.441-0.814-1.967l-4.553-4.553c-1.05-1.05-2.881-1.052-3.933,0l-3.571,3.571 c-0.475,0.475-0.997,0.574-1.352,0.574c-0.5,0-0.997-0.196-1.364-0.539C33.324,8.984,33,8.534,33,7.832V2.78 C33,1.247,31.753,0,30.22,0H23.78C22.247,0,21,1.247,21,2.78v5.052c0,1.218-0.997,1.945-1.961,1.945c-0.354,0-0.876-0.1-1.351-0.574 l-3.571-3.571c-1.052-1.052-2.883-1.05-3.933,0l-4.553,4.553c-0.525,0.525-0.814,1.224-0.814,1.967c0,0.742,0.289,1.44,0.814,1.966 l3.572,3.571c0.573,0.574,0.73,1.364,0.42,2.114S8.644,21,7.832,21H2.78C1.247,21,0,22.247,0,23.78v6.438C0,31.752,1.247,33,2.78,33 h5.052c0.812,0,1.481,0.447,1.792,1.197s0.153,1.54-0.42,2.114l-3.572,3.571c-0.525,0.525-0.814,1.224-0.814,1.966 c0,0.743,0.289,1.441,0.814,1.967l4.553,4.553c1.051,1.051,2.881,1.053,3.933,0l3.571-3.571c0.475-0.475,0.997-0.574,1.352-0.574 c0.963,0,1.96,0.728,1.96,1.945v5.051C21,52.752,22.247,54,23.78,54h6.439c1.533,0,2.78-1.248,2.78-2.781v-5.051 c0-1.218,0.997-1.945,1.96-1.945c0.354,0,0.877,0.1,1.352,0.574l3.571,3.571c1.052,1.052,2.883,1.05,3.933,0l4.553-4.553 c0.525-0.525,0.814-1.224,0.814-1.967c0-0.742-0.289-1.44-0.814-1.966l-3.572-3.571c-0.573-0.574-0.73-1.364-0.42-2.114 S45.356,33,46.168,33h5.052c1.533,0,2.78-1.248,2.78-2.781V23.78C54,22.247,52.753,21,51.22,21z M34,27c0,3.859-3.141,7-7,7 s-7-3.141-7-7s3.141-7,7-7S34,23.141,34,27z"/></symbol><symbol id="edit" viewBox="0 0 55.25 55.25"><title>edit</title><path d="M0.523,51.933l-0.497,2.085c-0.016,0.067-0.02,0.135-0.022,0.202C0.004,54.234,0,54.246,0,54.259 c0.001,0.114,0.026,0.225,0.065,0.332c0.009,0.025,0.019,0.047,0.03,0.071c0.049,0.107,0.11,0.21,0.196,0.296 c0.095,0.095,0.207,0.168,0.328,0.218c0.121,0.05,0.25,0.075,0.379,0.075c0.077,0,0.155-0.009,0.231-0.027l2.086-0.497 L0.523,51.933z"/><path d="M52.618,2.631c-3.51-3.508-9.219-3.508-12.729,0L3.827,38.693C3.81,38.71,3.8,38.731,3.785,38.749 c-0.021,0.024-0.039,0.05-0.058,0.076c-0.053,0.074-0.094,0.153-0.125,0.239c-0.009,0.026-0.022,0.049-0.029,0.075 c-0.003,0.01-0.009,0.02-0.012,0.03l-2.495,10.48L5.6,54.182l10.48-2.495c0.027-0.006,0.051-0.021,0.077-0.03 c0.034-0.011,0.066-0.024,0.099-0.039c0.072-0.033,0.139-0.074,0.201-0.123c0.024-0.019,0.049-0.033,0.072-0.054 c0.008-0.008,0.018-0.012,0.026-0.02l36.063-36.063C56.127,11.85,56.127,6.14,52.618,2.631z M17.157,47.992l0.354-3.183 L39.889,22.43c0.391-0.391,0.391-1.023,0-1.414s-1.023-0.391-1.414,0L16.097,43.395l-4.773,0.53l0.53-4.773l22.38-22.378 c0.391-0.391,0.391-1.023,0-1.414s-1.023-0.391-1.414,0L10.44,37.738l-3.183,0.354L34.94,10.409l9.9,9.9L17.157,47.992z M46.254,18.895l-9.9-9.9l1.414-1.414l9.9,9.9L46.254,18.895z M49.082,16.067l-9.9-9.9l1.415-1.415l9.9,9.9L49.082,16.067z"/></symbol><symbol id="clock" viewBox="0 0 60 60"><title>clock</title><circle cx="30" cy="29.879" r="2"/><path d="M30,0C13.458,0,0,13.458,0,30s13.458,30,30,30s30-13.458,30-30S46.542,0,30,0z M29,7.879c0-0.553,0.448-1,1-1s1,0.447,1,1 v1c0,0.553-0.448,1-1,1s-1-0.447-1-1V7.879z M9,30.879H8c-0.552,0-1-0.447-1-1s0.448-1,1-1h1c0.552,0,1,0.447,1,1 S9.552,30.879,9,30.879z M15.858,45.436l-0.707,0.707c-0.195,0.195-0.451,0.293-0.707,0.293s-0.512-0.098-0.707-0.293 c-0.391-0.391-0.391-1.023,0-1.414l0.707-0.707c0.391-0.391,1.023-0.391,1.414,0S16.249,45.045,15.858,45.436z M15.858,15.736 c-0.195,0.195-0.451,0.293-0.707,0.293s-0.512-0.098-0.707-0.293l-0.707-0.707c-0.391-0.391-0.391-1.023,0-1.414 s1.023-0.391,1.414,0l0.707,0.707C16.249,14.713,16.249,15.346,15.858,15.736z M31,51.879c0,0.553-0.448,1-1,1s-1-0.447-1-1v-1 c0-0.553,0.448-1,1-1s1,0.447,1,1V51.879z M30,33.879c-1.858,0-3.411-1.28-3.858-3H19c-0.552,0-1-0.447-1-1s0.448-1,1-1h7.142 c0.364-1.399,1.459-2.494,2.858-2.858V15.879c0-0.553,0.448-1,1-1s1,0.447,1,1v10.142c1.72,0.447,3,1.999,3,3.858 C34,32.085,32.206,33.879,30,33.879z M46.263,46.143c-0.195,0.195-0.451,0.293-0.707,0.293s-0.512-0.098-0.707-0.293l-0.707-0.707 c-0.391-0.391-0.391-1.023,0-1.414s1.023-0.391,1.414,0l0.707,0.707C46.654,45.119,46.654,45.752,46.263,46.143z M46.263,15.029 l-0.707,0.707c-0.195,0.195-0.451,0.293-0.707,0.293s-0.512-0.098-0.707-0.293c-0.391-0.391-0.391-1.023,0-1.414l0.707-0.707 c0.391-0.391,1.023-0.391,1.414,0S46.654,14.639,46.263,15.029z M52,30.879h-1c-0.552,0-1-0.447-1-1s0.448-1,1-1h1 c0.552,0,1,0.447,1,1S52.552,30.879,52,30.879z"/></symbol><symbol id="cloud" viewBox="0 0 56 56"><title>cloud</title><path d="M25,46H10.845C4.865,46,0,41.135,0,35.154C0,31,2.705,26.688,6.433,24.901L7,24.63V24c0-0.127,0.008-0.256,0.015-0.386 l0.009-0.16l-0.012-0.21C7.006,23.163,7,23.082,7,23c0-3.859,3.141-7,7-7c0.309,0,0.614,0.027,0.917,0.067 c0.078,0.01,0.156,0.023,0.233,0.036c0.267,0.044,0.53,0.102,0.789,0.177c0.035,0.01,0.071,0.017,0.106,0.027 c0.285,0.087,0.563,0.197,0.835,0.321c0.071,0.032,0.14,0.067,0.21,0.101c0.24,0.119,0.475,0.249,0.702,0.396 C19.719,18.373,21,20.538,21,23c0,0.553,0.447,1,1,1s1-0.447,1-1c0-2.754-1.246-5.219-3.2-6.871C22.667,12.379,27.388,10,32.085,10 c7.745,0,14.177,6.135,14.848,13.888c-1.022-0.072-2.552-0.109-4.083,0.124c-0.546,0.083-0.921,0.593-0.838,1.139 c0.075,0.495,0.501,0.85,0.987,0.85c0.05,0,0.101-0.004,0.151-0.012c2.227-0.337,4.548-0.021,4.684-0.002 C52.49,26.872,56,31.161,56,35.972C56,41.501,51.501,46,45.972,46H33H25z"/></symbol><symbol id="play-button-1" viewBox="0 0 60 60"><title>play-button-1</title><path d="M30,0C13.458,0,0,13.458,0,30s13.458,30,30,30s30-13.458,30-30S46.542,0,30,0z M45.563,30.826l-22,15 C23.394,45.941,23.197,46,23,46c-0.16,0-0.321-0.038-0.467-0.116C22.205,45.711,22,45.371,22,45V15c0-0.371,0.205-0.711,0.533-0.884 c0.328-0.174,0.724-0.15,1.031,0.058l22,15C45.836,29.36,46,29.669,46,30S45.836,30.64,45.563,30.826z"/></symbol><symbol id="internet" viewBox="0 0 57.949 57.949"><title>internet</title><path d="M29.975,27.985h11.972c-0.123-4.348-1.033-8.567-2.664-12.477c-3.01,0.874-6.131,1.355-9.308,1.44V27.985z"/><path d="M40.384,13.057c2.928-1.01,5.731-2.392,8.328-4.169l0.653-0.5C44.588,3.658,38.18,0.58,31.071,0.069L30.553,0.49 C34.767,3.979,38.099,8.268,40.384,13.057z"/><path d="M29.975,2.628v12.32c2.891-0.082,5.731-0.513,8.473-1.283C36.421,9.505,33.557,5.753,29.975,2.628z"/><path d="M41.531,42.202c3.13,1.132,6.12,2.668,8.885,4.639l0.868,0.65c3.976-4.785,6.439-10.866,6.665-17.505H43.947 C43.834,34.224,43.006,38.343,41.531,42.202z"/><path d="M9.237,8.888c2.597,1.777,5.401,3.158,8.328,4.169c2.285-4.788,5.617-9.077,9.832-12.567l-0.518-0.421 c-7.125,0.512-13.547,3.603-18.328,8.35L9.237,8.888z"/><path d="M27.975,2.628c-3.583,3.125-6.446,6.878-8.473,11.036c2.742,0.77,5.582,1.202,8.473,1.283V2.628z"/><path d="M14.003,29.985H0c0.227,6.639,2.689,12.719,6.665,17.505l0.85-0.635c2.775-1.977,5.771-3.518,8.906-4.652 C14.943,38.341,14.116,34.222,14.003,29.985z"/><path d="M16.752,14.89c-3.037-1.064-5.945-2.505-8.644-4.351L7.17,9.897C2.901,14.768,0.236,21.072,0,27.985h14.003 C14.124,23.425,15.061,18.997,16.752,14.89z"/><path d="M16.003,27.985h11.972V16.948c-3.179-0.085-6.301-0.566-9.309-1.438C17.035,19.419,16.125,23.637,16.003,27.985z"/><path d="M27.297,57.391c-4.419-3.695-7.841-8.259-10.111-13.341c-2.992,1.074-5.851,2.538-8.492,4.42l-0.689,0.515 c4.774,5.003,11.31,8.304,18.605,8.896L27.297,57.391z"/><path d="M27.975,40.023V29.985H16.003c0.113,4.019,0.905,7.924,2.313,11.58C21.429,40.627,24.669,40.111,27.975,40.023z"/><path d="M49.236,48.456c-2.631-1.875-5.482-3.335-8.469-4.406c-2.272,5.094-5.698,9.662-10.113,13.344l0.685,0.487 c7.295-0.592,13.832-3.892,18.606-8.895L49.236,48.456z"/><path d="M49.885,10.507c-2.72,1.862-5.643,3.311-8.689,4.38c1.692,4.108,2.629,8.537,2.751,13.098h14.003 c-0.237-6.935-2.917-13.256-7.209-18.133L49.885,10.507z"/><path d="M27.975,55.342V42.023c-3.039,0.085-6.016,0.556-8.882,1.4C21.136,47.932,24.141,51.998,27.975,55.342z"/><path d="M41.947,29.985H29.975v10.038c3.307,0.088,6.548,0.604,9.662,1.542C41.041,37.91,41.833,34.005,41.947,29.985z"/><path d="M38.86,43.423c-2.866-0.844-5.845-1.314-8.885-1.4v13.323C33.806,52.013,36.814,47.943,38.86,43.423z"/></symbol><symbol id="video-player" viewBox="0 0 58 58"><title>video-player</title><path d="M57,6H1C0.448,6,0,6.447,0,7v44c0,0.553,0.448,1,1,1h56c0.552,0,1-0.447,1-1V7C58,6.447,57.552,6,57,6z M10,50H2v-9h8V50z M10,39H2v-9h8V39z M10,28H2v-9h8V28z M10,17H2V8h8V17z M36.537,29.844l-11,7C25.374,36.947,25.187,37,25,37 c-0.166,0-0.331-0.041-0.481-0.123C24.199,36.701,24,36.365,24,36V22c0-0.365,0.199-0.701,0.519-0.877 c0.32-0.175,0.71-0.162,1.019,0.033l11,7C36.825,28.34,37,28.658,37,29S36.825,29.66,36.537,29.844z M56,50h-8v-9h8V50z M56,39h-8 v-9h8V39z M56,28h-8v-9h8V28z M56,17h-8V8h8V17z"/></symbol><symbol id="list" viewBox="0 0 60 60"><title>list</title><path d="M38.914,0H6.5v60h47V14.586L38.914,0z M24.125,41.781l-5,4C18.941,45.928,18.72,46,18.5,46 c-0.257,0-0.514-0.099-0.708-0.293l-2-2c-0.391-0.391-0.391-1.023,0-1.414s1.023-0.391,1.414,0l1.367,1.367l4.301-3.441 c0.43-0.345,1.061-0.275,1.405,0.156C24.626,40.807,24.556,41.436,24.125,41.781z M24.125,30.781l-5,4 C18.941,34.928,18.72,35,18.5,35c-0.257,0-0.514-0.099-0.708-0.293l-2-2c-0.391-0.391-0.391-1.023,0-1.414s1.023-0.391,1.414,0 l1.367,1.367l4.301-3.441c0.43-0.345,1.061-0.275,1.405,0.156C24.626,29.807,24.556,30.436,24.125,30.781z M24.125,19.781l-5,4 C18.941,23.928,18.72,24,18.5,24c-0.257,0-0.514-0.099-0.708-0.293l-2-2c-0.391-0.391-0.391-1.023,0-1.414s1.023-0.391,1.414,0 l1.367,1.367l4.301-3.441c0.43-0.345,1.061-0.275,1.405,0.156C24.626,18.807,24.556,19.436,24.125,19.781z M42.5,45h-16 c-0.552,0-1-0.447-1-1s0.448-1,1-1h16c0.552,0,1,0.447,1,1S43.052,45,42.5,45z M42.5,34h-16c-0.552,0-1-0.447-1-1s0.448-1,1-1h16 c0.552,0,1,0.447,1,1S43.052,34,42.5,34z M42.5,23h-16c-0.552,0-1-0.447-1-1s0.448-1,1-1h16c0.552,0,1,0.447,1,1S43.052,23,42.5,23z M37.5,16V2l14,14H37.5z"/></symbol><symbol id="map-location" viewBox="0 0 55.017 55.017"><title>map-location</title><path d="M51.688,23.013H40.789c-0.553,0-1,0.447-1,1s0.447,1,1,1h9.102l2.899,27H2.268l3.403-27h9.118c0.553,0,1-0.447,1-1 s-0.447-1-1-1H3.907L0,54.013h55.017L51.688,23.013z"/><path d="M17.48,45.164c-0.586,0.275-1.183,0.53-1.774,0.759c-0.515,0.198-0.771,0.777-0.572,1.293 c0.153,0.396,0.531,0.64,0.933,0.64c0.12,0,0.242-0.021,0.36-0.067c0.635-0.245,1.275-0.519,1.903-0.813 c0.5-0.234,0.715-0.83,0.48-1.33C18.576,45.145,17.984,44.928,17.48,45.164z"/><path d="M36.598,37.573c0.021,0.538,0.465,0.959,0.998,0.959c0.014,0,0.028,0,0.042-0.001l2.002-0.082 c0.552-0.025,0.979-0.493,0.954-1.044c-0.025-0.553-0.504-1.004-1.045-0.954l-1.993,0.082 C37.004,36.555,36.575,37.021,36.598,37.573z"/><path d="M31.427,37.171c-0.54,0.114-0.884,0.646-0.769,1.187c0.1,0.47,0.515,0.791,0.977,0.791c0.069,0,0.14-0.007,0.21-0.022 c0.586-0.124,1.221-0.229,1.886-0.313c0.548-0.067,0.938-0.567,0.869-1.115c-0.068-0.549-0.562-0.95-1.115-0.869 C32.762,36.919,32.069,37.034,31.427,37.171z"/><path d="M22.433,42.177c-0.514,0.388-1.045,0.761-1.58,1.107c-0.463,0.301-0.595,0.92-0.294,1.384 c0.191,0.295,0.513,0.455,0.84,0.455c0.187,0,0.375-0.052,0.544-0.161c0.573-0.372,1.144-0.772,1.695-1.188 c0.44-0.333,0.528-0.96,0.196-1.401C23.501,41.936,22.876,41.845,22.433,42.177z"/><path d="M9.994,48.842c0.216,0.057,0.436,0.098,0.653,0.124c0.256,0.031,0.512,0.047,0.769,0.047c0.312,0,0.626-0.022,0.939-0.062 c0.548-0.069,0.937-0.569,0.867-1.117c-0.068-0.548-0.566-0.933-1.117-0.867c-0.403,0.052-0.811,0.064-1.215,0.015 c-0.133-0.017-0.265-0.042-0.396-0.075c-0.533-0.143-1.08,0.183-1.218,0.718C9.138,48.159,9.459,48.705,9.994,48.842z"/><path d="M46.688,32.763c-0.164,0.527,0.132,1.088,0.659,1.251c0.099,0.03,0.198,0.045,0.296,0.045c0.427,0,0.822-0.275,0.955-0.704 c0.099-0.317,0.16-0.64,0.183-0.964c0.005-0.083,0.008-0.166,0.008-0.25c0-0.467-0.086-0.935-0.255-1.39 c-0.192-0.519-0.771-0.781-1.285-0.59c-0.519,0.192-0.782,0.768-0.59,1.285c0.086,0.232,0.13,0.466,0.13,0.694l-0.004,0.116 C46.774,32.422,46.741,32.592,46.688,32.763z"/><path d="M10.201,41c0.161,0,0.324-0.039,0.476-0.121c0.29-0.157,0.597-0.255,0.913-0.289c0.135-0.016,0.273-0.016,0.406,0.002 c0.563,0.07,1.05-0.314,1.122-0.86c0.072-0.548-0.313-1.05-0.86-1.122c-0.298-0.04-0.601-0.041-0.891-0.008 c-0.572,0.063-1.126,0.238-1.644,0.52c-0.485,0.264-0.666,0.87-0.402,1.355C9.502,40.811,9.846,41,10.201,41z"/><path d="M43.373,36.109c-0.541,0.111-0.889,0.641-0.777,1.182c0.098,0.473,0.514,0.798,0.979,0.798 c0.066,0,0.135-0.007,0.203-0.021c0.844-0.174,1.528-0.451,2.072-0.835c0.059-0.039,0.114-0.08,0.169-0.122 c0.436-0.339,0.479-0.941,0.14-1.378c-0.337-0.435-1.002-0.49-1.438-0.149C44.379,35.823,43.951,35.99,43.373,36.109z"/><path d="M8.86,43.401c0.145-0.533-0.171-1.082-0.704-1.226c-0.529-0.148-1.082,0.169-1.226,0.704 c-0.126,0.464-0.201,0.938-0.225,1.406C6.7,44.4,6.697,44.516,6.697,44.632c0,0.197,0.009,0.395,0.028,0.592 c0.053,0.515,0.487,0.898,0.994,0.898c0.033,0,0.067-0.002,0.103-0.005c0.549-0.057,0.949-0.547,0.894-1.097 c-0.014-0.129-0.019-0.26-0.019-0.389c0-0.083,0.003-0.166,0.007-0.248C8.72,44.058,8.772,43.727,8.86,43.401z"/><path d="M44.698,27.81c-0.789-0.106-1.607-0.04-2.386,0.18c-0.532,0.149-0.841,0.702-0.69,1.233 c0.124,0.441,0.525,0.729,0.961,0.729c0.091,0,0.182-0.012,0.272-0.038c0.517-0.145,1.055-0.19,1.575-0.121 c0.562,0.073,1.052-0.311,1.125-0.857C45.629,28.387,45.245,27.884,44.698,27.81z"/><path d="M26.655,38.968c-0.147,0.087-0.307,0.165-0.447,0.256c-0.219,0.142-0.432,0.29-0.641,0.441 c-0.446,0.325-0.545,0.951-0.22,1.397c0.196,0.269,0.501,0.411,0.81,0.411c0.204,0,0.41-0.063,0.588-0.191 c0.18-0.132,0.363-0.259,0.552-0.382c0.316-0.205,0.656-0.399,1.01-0.577c0.47-0.236,0.661-0.792,0.464-1.271 c0.008-0.008,0.018-0.014,0.026-0.023c1.809-1.916,7.905-9.096,10.429-21.058c0.512-2.426,0.627-4.754,0.342-6.918 c-0.86-6.575-4.945-10.051-11.813-10.051c-6.866,0-10.951,3.476-11.813,10.051c-0.284,2.166-0.169,4.493,0.343,6.918 C18.784,29.821,24.788,36.975,26.655,38.968z M27.755,5.233c4.051,0,7.346,3.295,7.346,7.346s-3.295,7.346-7.346,7.346 s-7.346-3.295-7.346-7.346S23.704,5.233,27.755,5.233z"/></symbol><symbol id="network" viewBox="0 0 55 55"><title>network</title><path d="M49,0c-3.309,0-6,2.691-6,6c0,1.035,0.263,2.009,0.726,2.86l-9.829,9.829C32.542,17.634,30.846,17,29,17 s-3.542,0.634-4.898,1.688l-7.669-7.669C16.785,10.424,17,9.74,17,9c0-2.206-1.794-4-4-4S9,6.794,9,9s1.794,4,4,4 c0.74,0,1.424-0.215,2.019-0.567l7.669,7.669C21.634,21.458,21,23.154,21,25s0.634,3.542,1.688,4.897L10.024,42.562 C8.958,41.595,7.549,41,6,41c-3.309,0-6,2.691-6,6s2.691,6,6,6s6-2.691,6-6c0-1.035-0.263-2.009-0.726-2.86l12.829-12.829 c1.106,0.86,2.44,1.436,3.898,1.619v10.16c-2.833,0.478-5,2.942-5,5.91c0,3.309,2.691,6,6,6s6-2.691,6-6c0-2.967-2.167-5.431-5-5.91 v-10.16c1.458-0.183,2.792-0.759,3.898-1.619l7.669,7.669C41.215,39.576,41,40.26,41,41c0,2.206,1.794,4,4,4s4-1.794,4-4 s-1.794-4-4-4c-0.74,0-1.424,0.215-2.019,0.567l-7.669-7.669C36.366,28.542,37,26.846,37,25s-0.634-3.542-1.688-4.897l9.665-9.665 C46.042,11.405,47.451,12,49,12c3.309,0,6-2.691,6-6S52.309,0,49,0z"/></symbol><symbol id="share" viewBox="0 0 58 58"><title>share</title><path d="M54.319,37.839C54.762,35.918,55,33.96,55,32c0-9.095-4.631-17.377-12.389-22.153c-0.473-0.29-1.087-0.143-1.376,0.327 c-0.29,0.471-0.143,1.086,0.327,1.376C48.724,15.96,53,23.604,53,32c0,1.726-0.2,3.451-0.573,5.147C51.966,37.051,51.489,37,51,37 c-3.86,0-7,3.141-7,7s3.14,7,7,7s7-3.141,7-7C58,41.341,56.509,39.024,54.319,37.839z"/><path d="M38.171,54.182C35.256,55.388,32.171,56,29,56c-6.385,0-12.527-2.575-17.017-7.092C13.229,47.643,14,45.911,14,44 c0-3.859-3.14-7-7-7s-7,3.141-7,7s3.14,7,7,7c1.226,0,2.378-0.319,3.381-0.875C15.26,55.136,21.994,58,29,58 c3.435,0,6.778-0.663,9.936-1.971c0.51-0.211,0.753-0.796,0.542-1.307C39.267,54.213,38.681,53.971,38.171,54.182z"/><path d="M4,31.213c0.024,0.002,0.048,0.003,0.071,0.003c0.521,0,0.959-0.402,0.997-0.93c0.712-10.089,7.586-18.52,17.22-21.314 C23.142,11.874,25.825,14,29,14c3.86,0,7-3.141,7-7s-3.14-7-7-7c-3.851,0-6.985,3.127-6.999,6.975 C11.42,9.922,3.851,19.12,3.073,30.146C3.034,30.696,3.449,31.175,4,31.213z"/></symbol><symbol id="stopwatch" viewBox="0 0 60 60"><title>stopwatch</title><path d="M34.74,36.53l9.363-12.944c0.287-0.397,0.244-0.945-0.104-1.293c-0.348-0.346-0.896-0.39-1.293-0.104L29.76,31.555 c-0.844,0.614-1.375,1.563-1.456,2.604s0.296,2.06,1.033,2.797C30.01,37.629,30.904,38,31.854,38 C32.992,38,34.07,37.451,34.74,36.53z"/><path d="M54.534,19.564c-0.01-0.021-0.01-0.043-0.021-0.064c-0.012-0.02-0.031-0.031-0.044-0.05 c-1.011-1.734-2.207-3.347-3.565-4.809l2.147-2.147l1.414,1.414l4.242-4.242l-4.242-4.243l-4.243,4.243l1.415,1.414l-2.147,2.147 c-1.462-1.358-3.074-2.555-4.809-3.566c-0.019-0.013-0.03-0.032-0.05-0.044c-0.021-0.012-0.043-0.011-0.064-0.022 c-3.093-1.782-6.568-2.969-10.272-3.404V5h1.5c1.379,0,2.5-1.121,2.5-2.5S37.172,0,35.793,0h-9c-1.379,0-2.5,1.121-2.5,2.5 s1.121,2.5,2.5,2.5h1.5v1.156c-1.08,0.115-2.158,0.291-3.224,0.535c-0.538,0.123-0.875,0.66-0.751,1.198 c0.123,0.538,0.66,0.874,1.198,0.751c0.946-0.217,1.902-0.378,2.86-0.485l0.991-0.075c0.335-0.025,0.635-0.043,0.925-0.057h0V10 c0,0.553,0.447,1,1,1s1-0.447,1-1V8.03c3.761,0.173,7.305,1.183,10.456,2.845l-0.986,1.708c-0.276,0.479-0.112,1.09,0.366,1.366 c0.157,0.091,0.329,0.134,0.499,0.134c0.346,0,0.682-0.18,0.867-0.5l0.983-1.704c3.129,1.985,5.787,4.643,7.772,7.772l-1.703,0.983 C50.07,20.91,49.906,21.521,50.183,22c0.186,0.321,0.521,0.5,0.867,0.5c0.17,0,0.342-0.043,0.499-0.134l1.707-0.986 c1.685,3.196,2.698,6.798,2.849,10.619H54.13c-0.553,0-1,0.447-1,1s0.447,1,1,1h1.975c-0.151,3.821-1.164,7.423-2.849,10.619 l-1.707-0.986c-0.478-0.277-1.09-0.114-1.366,0.366c-0.276,0.479-0.112,1.09,0.366,1.366l1.703,0.983 c-1.985,3.129-4.643,5.787-7.772,7.772l-0.983-1.703c-0.277-0.48-0.89-0.644-1.366-0.366c-0.479,0.276-0.643,0.888-0.366,1.366 l0.986,1.707c-3.151,1.662-6.695,2.672-10.456,2.845V56c0-0.553-0.447-1-1-1s-1,0.447-1,1v1.976 c-1.597-0.055-3.199-0.255-4.776-0.617c-0.538-0.125-1.075,0.213-1.198,0.751c-0.124,0.538,0.213,1.075,0.751,1.198 C27.068,59.768,29.107,60,31.13,60c0.049,0,0.096-0.003,0.145-0.004c0.007,0,0.012,0.004,0.018,0.004 c0.008,0,0.015-0.005,0.023-0.005c4.807-0.033,9.317-1.331,13.219-3.573c0.031-0.014,0.064-0.021,0.094-0.039 c0.02-0.012,0.031-0.031,0.05-0.044c4.039-2.354,7.414-5.725,9.773-9.761c0.019-0.027,0.043-0.048,0.06-0.078 c0.012-0.021,0.011-0.043,0.021-0.064C56.817,42.476,58.13,37.89,58.13,33S56.817,23.524,54.534,19.564z"/><path d="M22.293,13h-5c-1.104,0-2,0.896-2,2s0.896,2,2,2h5c1.104,0,2-0.896,2-2S23.397,13,22.293,13z"/><path d="M22.293,20h-10c-1.104,0-2,0.896-2,2s0.896,2,2,2h10c1.104,0,2-0.896,2-2S23.397,20,22.293,20z"/><path d="M22.293,27h-15c-1.104,0-2,0.896-2,2s0.896,2,2,2h15c1.104,0,2-0.896,2-2S23.397,27,22.293,27z"/><path d="M22.293,34h-19c-1.104,0-2,0.896-2,2s0.896,2,2,2h19c1.104,0,2-0.896,2-2S23.397,34,22.293,34z"/><path d="M22.293,41h-13c-1.104,0-2,0.896-2,2s0.896,2,2,2h13c1.104,0,2-0.896,2-2S23.397,41,22.293,41z"/><path d="M22.293,48h-7c-1.104,0-2,0.896-2,2s0.896,2,2,2h7c1.104,0,2-0.896,2-2S23.397,48,22.293,48z"/></symbol><symbol id="share-1" viewBox="0 0 59 59"><title>share-1</title><path d="M47,39c-2.671,0-5.182,1.04-7.071,2.929c-0.524,0.524-0.975,1.1-1.365,1.709l-17.28-10.489 C21.741,32.005,22,30.761,22,29.456c0-1.305-0.259-2.549-0.715-3.693l17.284-10.409C40.345,18.142,43.456,20,47,20 c5.514,0,10-4.486,10-10S52.514,0,47,0S37,4.486,37,10c0,1.256,0.243,2.454,0.667,3.562L20.361,23.985 c-1.788-2.724-4.866-4.529-8.361-4.529c-5.514,0-10,4.486-10,10s4.486,10,10,10c3.495,0,6.572-1.805,8.36-4.529L37.664,45.43 C37.234,46.556,37,47.759,37,49c0,2.671,1.04,5.183,2.929,7.071C41.818,57.96,44.329,59,47,59s5.182-1.04,7.071-2.929 C55.96,54.183,57,51.671,57,49s-1.04-5.183-2.929-7.071C52.182,40.04,49.671,39,47,39z"/></symbol><symbol id="info" viewBox="0 0 52 52"><title>info</title><path d="M26,0C11.663,0,0,11.663,0,26s11.663,26,26,26s26-11.663,26-26S40.337,0,26,0z M28,41c0,1.104-0.896,2-2,2s-2-0.896-2-2v-2 c0-1.104,0.896-2,2-2s2,0.896,2,2V41z M30.874,24.567C29.102,25.711,28,27.853,28,30.158V33c0,1.104-0.896,2-2,2s-2-0.896-2-2 v-2.842c0-3.706,1.76-7.053,4.706-8.952c1.46-0.942,2.317-2.541,2.293-4.277c-0.036-2.635-2.293-4.892-4.928-4.928 c-1.366-0.067-2.622,0.492-3.582,1.438C21.529,14.387,21,15.651,21,17c0,1.104-0.896,2-2,2s-2-0.896-2-2 c0-2.428,0.952-4.703,2.681-6.408C21.378,8.918,23.617,8,25.998,8c0.043,0,0.086,0.001,0.13,0.001 c4.824,0.067,8.804,4.047,8.871,8.871C35.043,19.996,33.501,22.873,30.874,24.567z"/></symbol><symbol id="folder-1" viewBox="0 0 60 60"><title>folder-1</title><path d="M14,23.5c-0.254,0-0.479,0.172-0.545,0.417L2,52.5v1c0,0.734-0.047,1,0.565,1h44.759c1.156,0,2.174-0.779,2.45-1.813 L60,24.5c0,0,0-0.625,0-1H14z"/><path d="M12.731,21.5H53h1v-6.268c0-1.507-1.226-2.732-2.732-2.732H26.515l-5-7H2.732C1.226,5.5,0,6.726,0,8.232v41.796 l10.282-26.717C10.557,22.279,11.575,21.5,12.731,21.5z"/></symbol><symbol id="paper-plane" viewBox="0 0 60.083 60.083"><title>paper-plane</title><path d="M60.049,10.871c0-0.002-0.001-0.005-0.001-0.007c-0.023-0.125-0.066-0.239-0.132-0.343 c-0.001-0.001-0.001-0.003-0.001-0.004c-0.001-0.002-0.003-0.003-0.004-0.005c-0.063-0.098-0.139-0.182-0.232-0.253 c-0.019-0.015-0.039-0.026-0.059-0.04c-0.075-0.049-0.152-0.09-0.239-0.117c-0.055-0.019-0.111-0.025-0.168-0.034 c-0.044-0.006-0.083-0.026-0.129-0.026H59.08c-0.039-0.001-0.066,0.003-0.094,0.006c-0.009,0.001-0.017,0-0.026,0.001 c-0.009,0.001-0.019,0-0.029,0.002c-0.027,0.004-0.054,0.008-0.08,0.014L0.798,22.062c-0.413,0.086-0.729,0.421-0.788,0.839 s0.15,0.828,0.523,1.025l16.632,8.773l2.917,16.187c-0.002,0.012,0.001,0.025,0,0.037c-0.01,0.08-0.011,0.158-0.001,0.237 c0.005,0.04,0.01,0.078,0.02,0.117c0.023,0.095,0.06,0.184,0.11,0.268c0.01,0.016,0.01,0.035,0.021,0.051 c0.003,0.005,0.008,0.009,0.012,0.013c0.013,0.019,0.031,0.034,0.046,0.053c0.047,0.058,0.096,0.111,0.152,0.156 c0.009,0.007,0.015,0.018,0.025,0.025c0.015,0.011,0.032,0.014,0.047,0.024c0.061,0.04,0.124,0.073,0.191,0.099 c0.027,0.01,0.052,0.022,0.08,0.03c0.09,0.026,0.183,0.044,0.277,0.044c0.001,0,0.002,0,0.003,0h0c0,0,0,0,0,0 c0.004,0,0.008-0.002,0.012-0.002c0.017,0.001,0.034,0.002,0.051,0.002c0.277,0,0.527-0.124,0.712-0.315l11.079-7.386l11.6,7.54 c0.164,0.106,0.354,0.161,0.545,0.161c0.105,0,0.212-0.017,0.315-0.051c0.288-0.096,0.518-0.318,0.623-0.604l13.936-37.825 c0.093-0.151,0.146-0.33,0.146-0.521C60.083,10.981,60.059,10.928,60.049,10.871z M48.464,17.594L24.471,35.236 c-0.039,0.029-0.07,0.065-0.104,0.099c-0.013,0.012-0.026,0.022-0.037,0.035c-0.021,0.023-0.04,0.046-0.059,0.071 c-0.018,0.024-0.032,0.049-0.048,0.074c-0.037,0.06-0.068,0.122-0.092,0.188c-0.005,0.013-0.013,0.023-0.017,0.036 c-0.001,0.004-0.005,0.006-0.006,0.01l-2.75,8.937l-2.179-12.091L48.464,17.594z M22.908,46.61l2.726-9.004l4.244,2.759l1.214,0.789 l-4.124,2.749L22.908,46.61z"/></symbol><symbol id="like-1" viewBox="0 0 58 58"><title>like-1</title><path d="M9.5,43c-2.757,0-5,2.243-5,5s2.243,5,5,5s5-2.243,5-5S12.257,43,9.5,43z"/><path d="M56.5,35c0-2.495-1.375-3.662-2.715-4.233C54.835,29.85,55.5,28.501,55.5,27c0-2.757-2.243-5-5-5H36.134l0.729-3.41 c0.973-4.549,0.334-9.716,0.116-11.191C36.461,3.906,33.372,0,30.013,0h-0.239C28.178,0,25.5,0.909,25.5,7c0,14.821-6.687,15-7,15 h0h-1v-2h-16v38h16v-2h28c2.757,0,5-2.243,5-5c0-1.164-0.4-2.236-1.069-3.087C51.745,47.476,53.5,45.439,53.5,43 c0-1.164-0.4-2.236-1.069-3.087C54.745,39.476,56.5,37.439,56.5,35z M3.5,56V22h12v34H3.5z"/></symbol><symbol id="save" viewBox="0 0 49 49"><title>save</title><rect x="27.5" y="5" width="6" height="10"/><path d="M39.914,0H0.5v49h48V8.586L39.914,0z M10.5,2h26v16h-26V2z M39.5,47h-31V26h31V47z"/><path d="M13.5,32h7c0.553,0,1-0.447,1-1s-0.447-1-1-1h-7c-0.553,0-1,0.447-1,1S12.947,32,13.5,32z"/><path d="M13.5,36h10c0.553,0,1-0.447,1-1s-0.447-1-1-1h-10c-0.553,0-1,0.447-1,1S12.947,36,13.5,36z"/><path d="M26.5,36c0.27,0,0.52-0.11,0.71-0.29c0.18-0.19,0.29-0.45,0.29-0.71s-0.11-0.521-0.29-0.71c-0.37-0.37-1.04-0.37-1.41,0 c-0.19,0.189-0.3,0.439-0.3,0.71c0,0.27,0.109,0.52,0.29,0.71C25.979,35.89,26.229,36,26.5,36z"/></symbol><symbol id="navigation" viewBox="0 0 51.636 51.636"><title>navigation</title><path d="M51.353,0.914c-0.295-0.305-0.75-0.39-1.135-0.213L0.583,23.481c-0.399,0.184-0.632,0.605-0.574,1.041 s0.393,0.782,0.826,0.854l22.263,3.731l2.545,21.038c0.054,0.438,0.389,0.791,0.824,0.865c0.057,0.01,0.113,0.015,0.169,0.015 c0.375,0,0.726-0.211,0.896-0.556l24-48.415C51.72,1.675,51.648,1.218,51.353,0.914z"/></symbol><symbol id="calendar" viewBox="0 0 59 59"><title>calendar</title><path d="M31.793,41.707C31.988,41.902,32.244,42,32.5,42s0.512-0.098,0.707-0.293l3.293-3.293l3.293,3.293 C39.988,41.902,40.244,42,40.5,42s0.512-0.098,0.707-0.293c0.391-0.391,0.391-1.023,0-1.414L37.914,37l3.293-3.293 c0.391-0.391,0.391-1.023,0-1.414s-1.023-0.391-1.414,0L36.5,35.586l-3.293-3.293c-0.391-0.391-1.023-0.391-1.414,0 s-0.391,1.023,0,1.414L35.086,37l-3.293,3.293C31.402,40.684,31.402,41.316,31.793,41.707z"/><path d="M26.5,0c-0.553,0-1,0.447-1,1s0.447,1,1,1c1.302,0,2.402,0.838,2.816,2h2.083C30.934,1.721,28.914,0,26.5,0z"/><path d="M32.5,0c-0.553,0-1,0.447-1,1s0.447,1,1,1c1.302,0,2.402,0.838,2.816,2h2.083C36.934,1.721,34.914,0,32.5,0z"/><path d="M38.5,0c-0.553,0-1,0.447-1,1s0.447,1,1,1c1.302,0,2.402,0.838,2.816,2h2.083C42.934,1.721,40.914,0,38.5,0z"/><path d="M43.399,4C43.465,4.323,43.5,4.658,43.5,5c0,2.757-2.243,5-5,5c-0.553,0-1-0.447-1-1s0.447-1,1-1c1.654,0,3-1.346,3-3 c0-0.353-0.072-0.686-0.184-1h-3.917C37.465,4.323,37.5,4.658,37.5,5c0,2.757-2.243,5-5,5c-0.553,0-1-0.447-1-1s0.447-1,1-1 c1.654,0,3-1.346,3-3c0-0.353-0.072-0.686-0.184-1h-3.917C31.465,4.323,31.5,4.658,31.5,5c0,2.757-2.243,5-5,5 c-0.553,0-1-0.447-1-1s0.447-1,1-1c1.654,0,3-1.346,3-3c0-0.353-0.072-0.686-0.184-1h-3.917C25.465,4.323,25.5,4.658,25.5,5 c0,2.757-2.243,5-5,5c-0.553,0-1-0.447-1-1s0.447-1,1-1c1.654,0,3-1.346,3-3c0-0.353-0.072-0.686-0.184-1H18.5h-0.816 c0.414-1.162,1.514-2,2.816-2s2.402,0.838,2.816,2h2.083c-0.465-2.279-2.484-4-4.899-4s-4.434,1.721-4.899,4H14.5h-14v11v14v2v12v2 v14h14h2h12h2h12h2h14V45v-2V31v-2V15V4H43.399z M14.5,57h-12V45h12V57z M14.5,43h-12V31h12V43z M14.5,29h-12V17h12V29z M28.5,57 h-12V45h12V57z M28.5,43h-12V31h12V43z M28.5,29h-12V17h12V29z M42.5,57h-12V45h12V57z M42.5,43h-12V31h12V43z M42.5,29h-12V17h12 V29z M56.5,57h-12V45h12V57z M56.5,43h-12V31h12V43z M56.5,29h-12V17h12V29z"/></symbol><symbol id="id-card" viewBox="0 0 60 60"><title>id-card</title><path d="M55.783,8H4.217C1.892,8,0,9.892,0,12.217v35.566C0,50.108,1.892,52,4.217,52h51.566C58.108,52,60,50.108,60,47.783V12.217 C60,9.892,58.108,8,55.783,8z M58,47.783C58,49.006,57.006,50,55.783,50H4.217C2.994,50,2,49.006,2,47.783V12.217 C2,10.994,2.994,10,4.217,10h51.566C57.006,10,58,10.994,58,12.217V47.783z"/><path d="M22.642,36.248L19,34.388v-0.387c1.628-0.889,2.773-2.353,3.412-4.364C23.381,29.123,24,28.122,24,27v-1 c0-0.926-0.431-1.785-1.151-2.349c-0.624-3.78-3.262-5.696-7.849-5.696c-0.217,0-0.429,0.008-0.636,0.024 c-1.202,0.097-2.363-0.162-3.224-0.74c-0.409-0.276-0.718-0.544-0.915-0.793c-0.444-0.568-1.369-0.593-1.843-0.062 c-0.227,0.254-0.334,0.596-0.294,0.936c0.042,0.374,0.105,0.809,0.2,1.286c0.193,0.975,0.193,0.975-0.078,1.558 c-0.102,0.221-0.228,0.49-0.376,0.853c-0.331,0.811-0.566,1.699-0.701,2.647C6.424,24.229,6,25.083,6,26v1 c0,1.122,0.619,2.123,1.588,2.637c0.639,2.012,1.784,3.476,3.412,4.364v0.376l-3.769,1.858C5.855,36.985,5,38.425,5,39.993v1.325 C5,42.121,5,44,15,44s10-1.879,10-2.682v-1.245C25,38.441,24.094,36.974,22.642,36.248z"/><path d="M30,23h10c0.553,0,1-0.447,1-1s-0.447-1-1-1H30c-0.553,0-1,0.447-1,1S29.447,23,30,23z"/><path d="M44,23h1c0.553,0,1-0.447,1-1s-0.447-1-1-1h-1c-0.553,0-1,0.447-1,1S43.447,23,44,23z"/><path d="M31,38h-1c-0.553,0-1,0.447-1,1s0.447,1,1,1h1c0.553,0,1-0.447,1-1S31.553,38,31,38z"/><path d="M37,38h-2c-0.553,0-1,0.447-1,1s0.447,1,1,1h2c0.553,0,1-0.447,1-1S37.553,38,37,38z"/><path d="M42,38h-1c-0.553,0-1,0.447-1,1s0.447,1,1,1h1c0.553,0,1-0.447,1-1S42.553,38,42,38z"/><path d="M48,38h-2c-0.553,0-1,0.447-1,1s0.447,1,1,1h2c0.553,0,1-0.447,1-1S48.553,38,48,38z"/><path d="M51.29,38.29C51.109,38.479,51,38.74,51,39s0.109,0.52,0.29,0.71C51.479,39.89,51.74,40,52,40s0.52-0.11,0.71-0.29 C52.89,39.52,53,39.26,53,39s-0.11-0.521-0.29-0.71C52.33,37.92,51.66,37.92,51.29,38.29z"/><path d="M52,27H30c-0.553,0-1,0.447-1,1s0.447,1,1,1h22c0.553,0,1-0.447,1-1S52.553,27,52,27z"/><path d="M52,33H30c-0.553,0-1,0.447-1,1s0.447,1,1,1h22c0.553,0,1-0.447,1-1S52.553,33,52,33z"/></symbol><symbol id="view" viewBox="0 0 59.2 59.2"><title>view</title><path d="M51.062,21.561c-5.759-5.759-13.416-8.931-21.561-8.931S13.7,15.801,7.941,21.561L0,29.501l8.138,8.138 c5.759,5.759,13.416,8.931,21.561,8.931s15.802-3.171,21.561-8.931l7.941-7.941L51.062,21.561z M49.845,36.225 c-5.381,5.381-12.536,8.345-20.146,8.345s-14.765-2.963-20.146-8.345l-6.724-6.724l6.527-6.527 c5.381-5.381,12.536-8.345,20.146-8.345s14.765,2.963,20.146,8.345l6.724,6.724L49.845,36.225z"/><path d="M29.572,16.57c-7.168,0-13,5.832-13,13s5.832,13,13,13s13-5.832,13-13S36.741,16.57,29.572,16.57z M29.572,24.57 c-2.757,0-5,2.243-5,5c0,0.552-0.448,1-1,1s-1-0.448-1-1c0-3.86,3.14-7,7-7c0.552,0,1,0.448,1,1S30.125,24.57,29.572,24.57z"/></symbol><symbol id="alarm" viewBox="0 0 60 60"><title>alarm</title><path d="M4.802,22.793c-0.391-0.391-1.023-0.391-1.414,0C1.203,24.978,0,27.886,0,30.983c0,3.097,1.203,6.006,3.388,8.19 c0.195,0.195,0.451,0.293,0.707,0.293s0.512-0.098,0.707-0.293c0.391-0.391,0.391-1.023,0-1.414C2.995,35.952,2,33.546,2,30.983 c0-2.563,0.995-4.97,2.802-6.776C5.192,23.816,5.192,23.184,4.802,22.793z"/><path d="M8.305,37.19c0.256,0,0.512-0.098,0.707-0.293c0.391-0.391,0.391-1.023,0-1.414c-2.558-2.558-2.558-6.719,0-9.276 c0.391-0.391,0.391-1.023,0-1.414s-1.023-0.391-1.414,0c-3.337,3.337-3.337,8.768,0,12.104C7.793,37.093,8.049,37.19,8.305,37.19z"/><path d="M56.612,22.793c-0.391-0.391-1.023-0.391-1.414,0s-0.391,1.023,0,1.414C57.005,26.014,58,28.42,58,30.983 c0,2.563-0.995,4.969-2.802,6.776c-0.391,0.391-0.391,1.023,0,1.414c0.195,0.195,0.451,0.293,0.707,0.293s0.512-0.098,0.707-0.293 C58.797,36.989,60,34.08,60,30.983C60,27.886,58.797,24.978,56.612,22.793z"/><path d="M50.988,24.793c-0.391,0.391-0.391,1.023,0,1.414c2.558,2.558,2.558,6.719,0,9.276c-0.391,0.391-0.391,1.023,0,1.414 c0.195,0.195,0.451,0.293,0.707,0.293s0.512-0.098,0.707-0.293c3.337-3.337,3.337-8.768,0-12.104 C52.011,24.402,51.378,24.402,50.988,24.793z"/><path d="M47.025,31.5v-8.994c0.043-6.857-4.568-11.405-8.53-13.216C37.377,8.78,36.2,8.401,35,8.112V7.5c0-2.757-2.243-5-5-5 s-5,2.243-5,5v0.706c-1.079,0.283-2.139,0.629-3.146,1.093C17.476,11.317,13.04,16.181,13,22.5v9 c0,6.388-2.256,11.869-6.705,16.291c-0.265,0.264-0.361,0.653-0.249,1.01c0.112,0.356,0.415,0.621,0.784,0.685l9.491,1.639 c1.79,0.309,3.415,0.556,4.944,0.758c1.745,3.422,5.172,5.618,8.918,5.618c3.747,0,7.175-2.198,8.919-5.621 c1.522-0.201,3.139-0.447,4.92-0.755l9.49-1.639c0.369-0.063,0.671-0.328,0.784-0.685c0.113-0.356,0.017-0.746-0.249-1.01 C49.387,43.16,47.025,37.679,47.025,31.5z M27,7.5c0-1.654,1.346-3,3-3s3,1.346,3,3v0.193c-1.993-0.282-4.024-0.266-6,0.05V7.5z M19,23.5c-0.002,0-0.004,0-0.006,0c-0.552-0.004-0.997-0.454-0.994-1.006c0.03-4.682,3.752-7.643,5.948-8.654 c3.849-1.775,8.594-1.772,12.469-0.002c0.502,0.229,0.723,0.822,0.494,1.325c-0.23,0.502-0.823,0.724-1.326,0.493 c-3.353-1.533-7.469-1.537-10.799,0c-1.767,0.814-4.762,3.173-4.785,6.85C19.997,23.057,19.549,23.5,19,23.5z M36.605,52.178 c-1.519,2.062-3.888,3.322-6.423,3.322c-2.534,0-4.902-1.26-6.421-3.32c0,0,0.001,0,0.001,0c0.392,0.04,0.772,0.073,1.152,0.105 c0.187,0.016,0.379,0.036,0.564,0.051c0.137,0.011,0.269,0.018,0.404,0.027c2.906,0.212,5.583,0.213,8.486,0.006 c0.17-0.012,0.336-0.021,0.508-0.034c0.214-0.017,0.436-0.039,0.654-0.059c0.343-0.03,0.684-0.059,1.036-0.095 C36.58,52.18,36.592,52.179,36.605,52.178z"/></symbol><symbol id="locked" viewBox="0 0 57 57"><title>locked</title><rect x="6.5" y="51" width="44" height="6"/><path d="M40.5,23V11.601C40.5,5.204,34.893,0,28,0S15.5,5.204,15.5,11.601V23h-9v26h44V23H40.5z M17.5,11.601 C17.5,6.307,22.21,2,28,2s10.5,4.307,10.5,9.601V23h-21V11.601z M32.5,41c0,2.206-1.794,4-4,4s-4-1.794-4-4v-6c0-2.206,1.794-4,4-4 s4,1.794,4,4V41z"/></symbol><symbol id="garbage" viewBox="0 0 59 59"><title>garbage</title><path d="M52.5,6H38.456c-0.11-1.25-0.495-3.358-1.813-4.711C35.809,0.434,34.751,0,33.499,0H23.5c-1.252,0-2.31,0.434-3.144,1.289 C19.038,2.642,18.653,4.75,18.543,6H6.5c-0.552,0-1,0.447-1,1s0.448,1,1,1h2.041l1.915,46.021C10.493,55.743,11.565,59,15.364,59 h28.272c3.799,0,4.871-3.257,4.907-4.958L50.459,8H52.5c0.552,0,1-0.447,1-1S53.052,6,52.5,6z M20.5,50c0,0.553-0.448,1-1,1 s-1-0.447-1-1V17c0-0.553,0.448-1,1-1s1,0.447,1,1V50z M30.5,50c0,0.553-0.448,1-1,1s-1-0.447-1-1V17c0-0.553,0.448-1,1-1 s1,0.447,1,1V50z M40.5,50c0,0.553-0.448,1-1,1s-1-0.447-1-1V17c0-0.553,0.448-1,1-1s1,0.447,1,1V50z M21.792,2.681 C22.24,2.223,22.799,2,23.5,2h9.999c0.701,0,1.26,0.223,1.708,0.681c0.805,0.823,1.128,2.271,1.24,3.319H20.553 C20.665,4.952,20.988,3.504,21.792,2.681z"/></symbol><symbol id="attachment" viewBox="0 0 52.623 52.623"><title>attachment</title><path d="M14.371,52.623c-3.535,0-6.849-1.368-9.332-3.852s-3.852-5.797-3.852-9.332c0-3.534,1.368-6.848,3.852-9.331L32.333,2.814 c3.905-3.903,9.973-3.728,14.114,0.413c4.141,4.141,4.319,10.208,0.414,14.114L21.22,42.982c-2.407,2.407-6.327,2.411-8.738,0 c-2.409-2.41-2.408-6.33,0-8.738l17.369-17.369c0.586-0.586,1.535-0.586,2.121,0c0.586,0.586,0.586,1.535,0,2.121L14.603,36.365 c-1.239,1.239-1.239,3.256,0,4.496c1.241,1.239,3.257,1.237,4.496,0L44.74,15.22c2.695-2.696,2.518-6.94-0.414-9.872 s-7.176-3.109-9.872-0.413L7.16,32.229c-1.917,1.917-2.973,4.478-2.973,7.21c0,2.733,1.056,5.294,2.973,7.211 s4.478,2.973,7.211,2.973c2.732,0,5.293-1.056,7.21-2.973l27.294-27.294c0.586-0.586,1.535-0.586,2.121,0s0.586,1.535,0,2.121 L23.702,48.771C21.219,51.254,17.905,52.623,14.371,52.623z"/></symbol><symbol id="substract" viewBox="0 0 42 42"><title>substract</title><rect y="19" width="42" height="4"/></symbol><symbol id="more" viewBox="0 0 60 60"><title>more</title><path d="M8,22c-4.411,0-8,3.589-8,8s3.589,8,8,8s8-3.589,8-8S12.411,22,8,22z"/><path d="M52,22c-4.411,0-8,3.589-8,8s3.589,8,8,8s8-3.589,8-8S56.411,22,52,22z"/><path d="M30,22c-4.411,0-8,3.589-8,8s3.589,8,8,8s8-3.589,8-8S34.411,22,30,22z"/></symbol><symbol id="checked" viewBox="0 0 60.015 60.015"><title>checked</title><path d="M59.136,7.372c-1.133-1.133-3.109-1.133-4.242,0L27,35.265L15.344,23.609c-1.133-1.133-3.109-1.133-4.242,0 c-0.566,0.566-0.879,1.32-0.879,2.121s0.313,1.555,0.879,2.121l13.777,13.777c0.566,0.566,1.32,0.879,2.121,0.879 s1.555-0.313,2.121-0.879l30.015-30.015c0.566-0.566,0.879-1.32,0.879-2.121S59.702,7.938,59.136,7.372z"/><path d="M27,45.007c-1.469,0-2.85-0.572-3.889-1.611L9.334,29.619c-1.039-1.039-1.611-2.42-1.611-3.889s0.572-2.85,1.611-3.889 c1.005-1.006,2.423-1.582,3.889-1.582s2.884,0.576,3.889,1.582L27,31.73l26-26V3.507H0v53h53V21.285L30.889,43.396 C29.85,44.435,28.469,45.007,27,45.007z"/></symbol><symbol id="fast-forward" viewBox="0 0 57 57"><title>fast-forward</title><path d="M56.575,27.683l-27-19c-0.306-0.216-0.703-0.242-1.036-0.07C28.208,8.784,28,9.127,28,9.5v17.777L1.575,8.694 C1.27,8.481,0.872,8.453,0.539,8.625C0.208,8.797,0,9.14,0,9.513v37.975c0,0.373,0.208,0.716,0.539,0.888 C0.685,48.45,0.843,48.487,1,48.487c0.202,0,0.403-0.062,0.575-0.182L28,29.723V47.5c0,0.373,0.208,0.716,0.539,0.888 C28.685,48.463,28.843,48.5,29,48.5c0.202,0,0.404-0.062,0.575-0.183l27-19C56.842,29.131,57,28.825,57,28.5 S56.842,27.869,56.575,27.683z"/></symbol><symbol id="exit" viewBox="0 0 55 55"><title>exit</title><path d="M53.924,23.618c-0.051-0.123-0.125-0.234-0.217-0.327L41.708,11.293c-0.391-0.391-1.023-0.391-1.414,0 s-0.391,1.023,0,1.414L50.587,23H29.001c-0.553,0-1,0.447-1,1s0.447,1,1,1h21.586L40.294,35.293c-0.391,0.391-0.391,1.023,0,1.414 C40.489,36.902,40.745,37,41.001,37s0.512-0.098,0.707-0.293l11.999-11.999c0.093-0.092,0.166-0.203,0.217-0.326 C54.025,24.138,54.025,23.862,53.924,23.618z"/><path d="M36.001,29c-0.553,0-1,0.447-1,1v16h-10V8c0-0.436-0.282-0.821-0.697-0.953L8.442,2h26.559v16c0,0.553,0.447,1,1,1 s1-0.447,1-1V1c0-0.553-0.447-1-1-1h-34c-0.032,0-0.06,0.015-0.091,0.018C1.854,0.023,1.805,0.036,1.752,0.05 C1.658,0.075,1.574,0.109,1.493,0.158C1.467,0.174,1.436,0.174,1.411,0.192C1.38,0.215,1.356,0.244,1.328,0.269 c-0.017,0.016-0.035,0.03-0.051,0.047C1.201,0.398,1.139,0.489,1.093,0.589c-0.009,0.02-0.014,0.04-0.022,0.06 C1.029,0.761,1.001,0.878,1.001,1v46c0,0.125,0.029,0.243,0.072,0.355c0.014,0.037,0.035,0.068,0.053,0.103 c0.037,0.071,0.079,0.136,0.132,0.196c0.029,0.032,0.058,0.061,0.09,0.09c0.058,0.051,0.123,0.093,0.193,0.13 c0.037,0.02,0.071,0.041,0.111,0.056c0.017,0.006,0.03,0.018,0.047,0.024l22,7C23.797,54.984,23.899,55,24.001,55 c0.21,0,0.417-0.066,0.59-0.192c0.258-0.188,0.41-0.488,0.41-0.808v-6h11c0.553,0,1-0.447,1-1V30 C37.001,29.447,36.553,29,36.001,29z"/></symbol><symbol id="list-1" viewBox="0 0 60 60"><title>list-1</title><path d="M59,0H1C0.448,0,0,0.447,0,1v58c0,0.553,0.448,1,1,1h58c0.552,0,1-0.447,1-1V1C60,0.447,59.552,0,59,0z M18.686,50.828 l-3.756-1.975l-3.756,1.975l0.717-4.183l-3.039-2.963l4.2-0.61l1.878-3.806l1.878,3.806l4.2,0.61l-3.039,2.963L18.686,50.828z M17.968,31.202l0.717,4.183l-3.756-1.975l-3.756,1.975l0.717-4.183l-3.039-2.963l4.2-0.61l1.878-3.806l1.878,3.806l4.2,0.61 L17.968,31.202z M17.968,16.119l0.717,4.183l-3.756-1.975l-3.756,1.975l0.717-4.183l-3.039-2.963l4.2-0.61l1.878-3.806l1.878,3.806 l4.2,0.61L17.968,16.119z M47,48H23v-4h24V48z M47,33H23v-4h24V33z M47,18H23v-4h24V18z"/></symbol><symbol id="warning" viewBox="0 0 52 52"><title>warning</title><path d="M26,0C11.664,0,0,11.663,0,26s11.664,26,26,26s26-11.663,26-26S40.336,0,26,0z M28,41c0,1.104-0.896,2-2,2s-2-0.896-2-2v-2 c0-1.104,0.896-2,2-2s2,0.896,2,2V41z M28,33c0,1.104-0.896,2-2,2s-2-0.896-2-2V11c0-1.104,0.896-2,2-2s2,0.896,2,2V33z"/></symbol><symbol id="microphone" viewBox="0 0 59 59"><title>microphone</title><path d="M44.5,29c-0.552,0-1,0.447-1,1v6c0,7.72-6.28,14-14,14s-14-6.28-14-14v-6c0-0.553-0.448-1-1-1s-1,0.447-1,1v6 c0,8.485,6.644,15.429,15,15.949V57h-5c-0.552,0-1,0.447-1,1s0.448,1,1,1h12c0.552,0,1-0.447,1-1s-0.448-1-1-1h-5v-5.051 c8.356-0.52,15-7.465,15-15.949v-6C45.5,29.447,45.052,29,44.5,29z"/><path d="M29.5,48c-0.552,0-1-0.448-1-1s0.448-1,1-1s1,0.448,1,1S30.052,48,29.5,48c6.617,0,12-5.383,12-12V12 c0-6.617-5.383-12-12-12s-12,5.383-12,12v24C17.5,42.617,22.883,48,29.5,48z M38.5,7c0.552,0,1,0.448,1,1s-0.448,1-1,1 s-1-0.448-1-1S37.948,7,38.5,7z M38.5,13c0.552,0,1,0.448,1,1s-0.448,1-1,1s-1-0.448-1-1S37.948,13,38.5,13z M38.5,19 c0.552,0,1,0.448,1,1s-0.448,1-1,1s-1-0.448-1-1S37.948,19,38.5,19z M38.5,25c0.552,0,1,0.448,1,1s-0.448,1-1,1s-1-0.448-1-1 S37.948,25,38.5,25z M38.5,31c0.552,0,1,0.448,1,1s-0.448,1-1,1s-1-0.448-1-1S37.948,31,38.5,31z M38.5,37c0.552,0,1,0.448,1,1 s-0.448,1-1,1s-1-0.448-1-1S37.948,37,38.5,37z M35.5,4c0.552,0,1,0.448,1,1s-0.448,1-1,1s-1-0.448-1-1S34.948,4,35.5,4z M35.5,10 c0.552,0,1,0.448,1,1s-0.448,1-1,1s-1-0.448-1-1S34.948,10,35.5,10z M35.5,16c0.552,0,1,0.448,1,1s-0.448,1-1,1s-1-0.448-1-1 S34.948,16,35.5,16z M35.5,22c0.552,0,1,0.448,1,1s-0.448,1-1,1s-1-0.448-1-1S34.948,22,35.5,22z M35.5,28c0.552,0,1,0.448,1,1 s-0.448,1-1,1s-1-0.448-1-1S34.948,28,35.5,28z M35.5,34c0.552,0,1,0.448,1,1s-0.448,1-1,1s-1-0.448-1-1S34.948,34,35.5,34z M35.5,40c0.552,0,1,0.448,1,1s-0.448,1-1,1s-1-0.448-1-1S34.948,40,35.5,40z M32.5,1c0.552,0,1,0.448,1,1c0,0.552-0.448,1-1,1 s-1-0.448-1-1C31.5,1.448,31.948,1,32.5,1z M32.5,7c0.552,0,1,0.448,1,1s-0.448,1-1,1s-1-0.448-1-1S31.948,7,32.5,7z M32.5,13 c0.552,0,1,0.448,1,1s-0.448,1-1,1s-1-0.448-1-1S31.948,13,32.5,13z M32.5,19c0.552,0,1,0.448,1,1s-0.448,1-1,1s-1-0.448-1-1 S31.948,19,32.5,19z M32.5,25c0.552,0,1,0.448,1,1s-0.448,1-1,1s-1-0.448-1-1S31.948,25,32.5,25z M32.5,31c0.552,0,1,0.448,1,1 s-0.448,1-1,1s-1-0.448-1-1S31.948,31,32.5,31z M32.5,37c0.552,0,1,0.448,1,1s-0.448,1-1,1s-1-0.448-1-1S31.948,37,32.5,37z M32.5,43c0.552,0,1,0.448,1,1s-0.448,1-1,1s-1-0.448-1-1S31.948,43,32.5,43z M29.5,4c0.552,0,1,0.448,1,1s-0.448,1-1,1 s-1-0.448-1-1S28.948,4,29.5,4z M29.5,10c0.552,0,1,0.448,1,1s-0.448,1-1,1s-1-0.448-1-1S28.948,10,29.5,10z M29.5,16 c0.552,0,1,0.448,1,1s-0.448,1-1,1s-1-0.448-1-1S28.948,16,29.5,16z M29.5,22c0.552,0,1,0.448,1,1s-0.448,1-1,1s-1-0.448-1-1 S28.948,22,29.5,22z M29.5,28c0.552,0,1,0.448,1,1s-0.448,1-1,1s-1-0.448-1-1S28.948,28,29.5,28z M29.5,34c0.552,0,1,0.448,1,1 s-0.448,1-1,1s-1-0.448-1-1S28.948,34,29.5,34z M29.5,40c0.552,0,1,0.448,1,1s-0.448,1-1,1s-1-0.448-1-1S28.948,40,29.5,40z M26.5,1c0.552,0,1,0.448,1,1c0,0.552-0.448,1-1,1s-1-0.448-1-1C25.5,1.448,25.948,1,26.5,1z M26.5,7c0.552,0,1,0.448,1,1 s-0.448,1-1,1s-1-0.448-1-1S25.948,7,26.5,7z M26.5,13c0.552,0,1,0.448,1,1s-0.448,1-1,1s-1-0.448-1-1S25.948,13,26.5,13z M26.5,19 c0.552,0,1,0.448,1,1s-0.448,1-1,1s-1-0.448-1-1S25.948,19,26.5,19z M26.5,25c0.552,0,1,0.448,1,1s-0.448,1-1,1s-1-0.448-1-1 S25.948,25,26.5,25z M26.5,31c0.552,0,1,0.448,1,1s-0.448,1-1,1s-1-0.448-1-1S25.948,31,26.5,31z M26.5,37c0.552,0,1,0.448,1,1 s-0.448,1-1,1s-1-0.448-1-1S25.948,37,26.5,37z M26.5,43c0.552,0,1,0.448,1,1s-0.448,1-1,1s-1-0.448-1-1S25.948,43,26.5,43z M23.5,4c0.552,0,1,0.448,1,1s-0.448,1-1,1s-1-0.448-1-1S22.948,4,23.5,4z M23.5,10c0.552,0,1,0.448,1,1s-0.448,1-1,1s-1-0.448-1-1 S22.948,10,23.5,10z M23.5,16c0.552,0,1,0.448,1,1s-0.448,1-1,1s-1-0.448-1-1S22.948,16,23.5,16z M23.5,22c0.552,0,1,0.448,1,1 s-0.448,1-1,1s-1-0.448-1-1S22.948,22,23.5,22z M23.5,28c0.552,0,1,0.448,1,1s-0.448,1-1,1s-1-0.448-1-1S22.948,28,23.5,28z M23.5,34c0.552,0,1,0.448,1,1s-0.448,1-1,1s-1-0.448-1-1S22.948,34,23.5,34z M23.5,40c0.552,0,1,0.448,1,1s-0.448,1-1,1 s-1-0.448-1-1S22.948,40,23.5,40z M20.5,7c0.552,0,1,0.448,1,1s-0.448,1-1,1s-1-0.448-1-1S19.948,7,20.5,7z M20.5,13 c0.552,0,1,0.448,1,1s-0.448,1-1,1s-1-0.448-1-1S19.948,13,20.5,13z M20.5,19c0.552,0,1,0.448,1,1s-0.448,1-1,1s-1-0.448-1-1 S19.948,19,20.5,19z M20.5,25c0.552,0,1,0.448,1,1s-0.448,1-1,1s-1-0.448-1-1S19.948,25,20.5,25z M20.5,31c0.552,0,1,0.448,1,1 s-0.448,1-1,1s-1-0.448-1-1S19.948,31,20.5,31z M19.5,38c0-0.552,0.448-1,1-1s1,0.448,1,1s-0.448,1-1,1S19.5,38.552,19.5,38z"/></symbol><symbol id="minus" viewBox="0 0 52 52"><title>minus</title><path d="M26,0C11.664,0,0,11.663,0,26s11.664,26,26,26s26-11.663,26-26S40.336,0,26,0z M38.5,28h-25c-1.104,0-2-0.896-2-2 s0.896-2,2-2h25c1.104,0,2,0.896,2,2S39.604,28,38.5,28z"/></symbol><symbol id="more-1" viewBox="0 0 60 60"><title>more-1</title><path d="M30,16c4.411,0,8-3.589,8-8s-3.589-8-8-8s-8,3.589-8,8S25.589,16,30,16z"/><path d="M30,44c-4.411,0-8,3.589-8,8s3.589,8,8,8s8-3.589,8-8S34.411,44,30,44z"/><path d="M30,22c-4.411,0-8,3.589-8,8s3.589,8,8,8s8-3.589,8-8S34.411,22,30,22z"/></symbol><symbol id="power" viewBox="0 0 57 57"><title>power</title><path d="M28.5,29c1.104,0,2-0.896,2-2V2c0-1.104-0.896-2-2-2s-2,0.896-2,2v25C26.5,28.104,27.396,29,28.5,29z"/><path d="M54.418,29.025c-0.007-0.091-0.013-0.183-0.021-0.274c-0.86-10.027-7.407-18.423-16.403-21.955 c-0.092-0.036-0.182-0.073-0.274-0.108c-0.584-0.221-1.177-0.422-1.78-0.602c-0.044-0.013-0.086-0.031-0.13-0.044 c-0.012-0.003-0.024,0-0.036-0.003C34.551,5.683,33.29,5.419,32,5.244v4.038C42.473,10.963,50.5,20.06,50.5,31 c0,12.131-9.869,22-22,22s-22-9.869-22-22c0-10.94,8.027-20.037,18.5-21.719V5.243c-1.278,0.174-2.529,0.435-3.742,0.786 c-0.012,0.003-0.025,0-0.037,0.003c-0.047,0.014-0.091,0.032-0.137,0.046c-0.604,0.179-1.198,0.379-1.783,0.601 c-0.09,0.034-0.178,0.071-0.268,0.106c-1.255,0.491-2.463,1.076-3.614,1.748c-0.01,0.006-0.02,0.011-0.031,0.017 C8.292,12.705,3.344,20.123,2.603,28.748c-0.008,0.091-0.014,0.183-0.021,0.275C2.533,29.676,2.5,30.334,2.5,31 c0,14.359,11.641,26,26,26s26-11.641,26-26C54.5,30.335,54.467,29.677,54.418,29.025z"/></symbol><symbol id="fax" viewBox="0 0 60 60"><title>fax</title><path d="M18,9h18c0.553,0,1-0.447,1-1s-0.447-1-1-1H18c-0.553,0-1,0.447-1,1S17.447,9,18,9z"/><path d="M42,12H18c-0.553,0-1,0.447-1,1s0.447,1,1,1h24c0.553,0,1-0.447,1-1S42.553,12,42,12z"/><path d="M42,43H18c-0.553,0-1,0.447-1,1s0.447,1,1,1h24c0.553,0,1-0.447,1-1S42.553,43,42,43z"/><path d="M42,48H18c-0.553,0-1,0.447-1,1s0.447,1,1,1h24c0.553,0,1-0.447,1-1S42.553,48,42,48z"/><g> <path d="M51,17V0H9v17H0v34h6v3h3v6h42v-6h3v-3h6V17H51z M11,2h38v15H11V2z M23,28h-3c-0.553,0-1-0.447-1-1s0.447-1,1-1h3 c0.553,0,1,0.447,1,1S23.553,28,23,28z M24,31c0,0.553-0.447,1-1,1h-3c-0.553,0-1-0.447-1-1s0.447-1,1-1h3 C23.553,30,24,30.447,24,31z M23,24h-3c-0.553,0-1-0.447-1-1s0.447-1,1-1h3c0.553,0,1,0.447,1,1S23.553,24,23,24z M16,28h-3 c-0.553,0-1-0.447-1-1s0.447-1,1-1h3c0.553,0,1,0.447,1,1S16.553,28,16,28z M17,31c0,0.553-0.447,1-1,1h-3c-0.553,0-1-0.447-1-1 s0.447-1,1-1h3C16.553,30,17,30.447,17,31z M16,24h-3c-0.553,0-1-0.447-1-1s0.447-1,1-1h3c0.553,0,1,0.447,1,1S16.553,24,16,24z M9,32H6c-0.553,0-1-0.447-1-1s0.447-1,1-1h3c0.553,0,1,0.447,1,1S9.553,32,9,32z M9,28H6c-0.553,0-1-0.447-1-1s0.447-1,1-1h3 c0.553,0,1,0.447,1,1S9.553,28,9,28z M9,24H6c-0.553,0-1-0.447-1-1s0.447-1,1-1h3c0.553,0,1,0.447,1,1S9.553,24,9,24z M49,54v4H11 v-4V37h38V54z M50,32c-2.757,0-5-2.243-5-5s2.243-5,5-5s5,2.243,5,5S52.757,32,50,32z"/> <circle cx="50" cy="27" r="3"/> </g></symbol><symbol id="funnel" viewBox="0 0 51.913 51.913"><title>funnel</title><path d="M50.957,7c0-4.596-12.577-7-25-7s-25,2.404-25,7c0,1.042,0.652,1.97,1.796,2.784l17.204,23.542v17.525l0.062,1.062h1 l0.457-0.018l10.481-10.481v-8.088L49.16,9.784C50.305,8.97,50.957,8.042,50.957,7z M25.957,2c14.04,0,23,2.961,23,5s-8.96,5-23,5 s-23-2.961-23-5S11.917,2,25.957,2z"/></symbol><symbol id="rewind" viewBox="0 0 57 57"><title>rewind</title><path d="M56.461,8.625c-0.333-0.172-0.73-0.145-1.036,0.069L29,27.277V9.5c0-0.373-0.208-0.716-0.539-0.888 c-0.333-0.172-0.731-0.146-1.036,0.07l-27,19C0.158,27.869,0,28.175,0,28.5s0.158,0.631,0.425,0.817l27,19 C27.597,48.439,27.798,48.5,28,48.5c0.157,0,0.315-0.037,0.461-0.112C28.792,48.216,29,47.873,29,47.5V29.723l26.425,18.583 c0.172,0.12,0.373,0.182,0.575,0.182c0.157,0,0.315-0.037,0.461-0.112C56.792,48.203,57,47.86,57,47.487V9.513 C57,9.14,56.792,8.797,56.461,8.625z"/></symbol><symbol id="controls" viewBox="0 0 54 54"><title>controls</title><path d="M36,41v4H1c-0.553,0-1,0.448-1,1c0,0.552,0.447,1,1,1h35v4c0,0.552,0.447,1,1,1h12c0.553,0,1-0.448,1-1v-4h3 c0.553,0,1-0.448,1-1s-0.447-1-1-1h-3v-4c0-0.552-0.447-1-1-1H37C36.447,40,36,40.448,36,41z"/><path d="M20,22v4H1c-0.553,0-1,0.448-1,1s0.447,1,1,1h19v4c0,0.552,0.447,1,1,1h12c0.553,0,1-0.448,1-1v-4h19c0.553,0,1-0.448,1-1 s-0.447-1-1-1H34v-4c0-0.552-0.447-1-1-1H21C20.447,21,20,21.448,20,22z"/><path d="M4,3v4H1C0.447,7,0,7.448,0,8c0,0.552,0.447,1,1,1h3v4c0,0.552,0.447,1,1,1h12c0.553,0,1-0.448,1-1V9h35 c0.553,0,1-0.448,1-1s-0.447-1-1-1H18V3c0-0.552-0.447-1-1-1H5C4.447,2,4,2.448,4,3z"/></symbol><symbol id="next" viewBox="0 0 42 42"><title>next</title><path d="M35.5,0c-0.552,0-1,0.447-1,1v18.095L7.068,0.177C6.762-0.034,6.364-0.057,6.035,0.114C5.706,0.287,5.5,0.628,5.5,1v40 c0,0.372,0.206,0.713,0.535,0.886C6.181,41.962,6.341,42,6.5,42c0.199,0,0.397-0.06,0.568-0.177L34.5,22.905V41c0,0.553,0.448,1,1,1 s1-0.447,1-1V1C36.5,0.447,36.052,0,35.5,0z"/></symbol><symbol id="previous" viewBox="0 0 42 42"><title>previous</title><path d="M35.965,0.114c-0.329-0.171-0.726-0.148-1.033,0.063L7.5,19.095V1c0-0.553-0.448-1-1-1s-1,0.447-1,1v40c0,0.553,0.448,1,1,1 s1-0.447,1-1V22.905l27.432,18.919C35.103,41.94,35.301,42,35.5,42c0.159,0,0.319-0.038,0.465-0.114 C36.294,41.713,36.5,41.372,36.5,41V1C36.5,0.628,36.294,0.287,35.965,0.114z"/></symbol><symbol id="controls-1" viewBox="0 0 54 54"><title>controls-1</title><path d="M13,36H9V1c0-0.553-0.448-1-1-1S7,0.447,7,1v35H3c-0.552,0-1,0.447-1,1v12c0,0.553,0.448,1,1,1h4v3c0,0.553,0.448,1,1,1 s1-0.447,1-1v-3h4c0.552,0,1-0.447,1-1V37C14,36.447,13.552,36,13,36z"/><path d="M32,20h-4V1c0-0.553-0.448-1-1-1s-1,0.447-1,1v19h-4c-0.552,0-1,0.447-1,1v12c0,0.553,0.448,1,1,1h4v19 c0,0.553,0.448,1,1,1s1-0.447,1-1V34h4c0.552,0,1-0.447,1-1V21C33,20.447,32.552,20,32,20z"/><path d="M51,4h-4V1c0-0.553-0.448-1-1-1s-1,0.447-1,1v3h-4c-0.552,0-1,0.447-1,1v12c0,0.553,0.448,1,1,1h4v35c0,0.553,0.448,1,1,1 s1-0.447,1-1V18h4c0.552,0,1-0.447,1-1V5C52,4.447,51.552,4,51,4z"/></symbol><symbol id="dislike" viewBox="0 0 58 58"><title>dislike</title><path d="M40.5,0v2h-28c-2.757,0-5,2.243-5,5c0,1.164,0.4,2.236,1.069,3.087C6.255,10.524,4.5,12.561,4.5,15 c0,1.164,0.4,2.236,1.069,3.087C3.255,18.524,1.5,20.561,1.5,23c0,2.495,1.375,3.662,2.715,4.233C3.165,28.15,2.5,29.499,2.5,31 c0,2.757,2.243,5,5,5h14.366l-0.729,3.41c-0.973,4.551-0.334,9.717-0.116,11.191C21.539,54.094,24.628,58,27.987,58h0.239 c1.596,0,4.274-0.909,4.274-7c0-14.82,6.686-15,7-15h0h1v2h16V0H40.5z M54.5,36h-12V2h12V36z"/><path d="M48.5,15c2.757,0,5-2.243,5-5s-2.243-5-5-5s-5,2.243-5,5S45.743,15,48.5,15z"/></symbol><symbol id="bookmark" viewBox="0 0 60 60"><title>bookmark</title><path d="M47.5,36h-35c-0.553,0-1,0.447-1,1s0.447,1,1,1h35c0.553,0,1-0.447,1-1S48.053,36,47.5,36z"/><path d="M34.5,31h13c0.553,0,1-0.447,1-1s-0.447-1-1-1h-13c-0.553,0-1,0.447-1,1S33.947,31,34.5,31z"/><path d="M34.5,24h13c0.553,0,1-0.447,1-1s-0.447-1-1-1h-13c-0.553,0-1,0.447-1,1S33.947,24,34.5,24z"/><path d="M34.5,17h13c0.553,0,1-0.447,1-1s-0.447-1-1-1h-13c-0.553,0-1,0.447-1,1S33.947,17,34.5,17z"/><path d="M47.5,48h-35c-0.553,0-1,0.447-1,1s0.447,1,1,1h35c0.553,0,1-0.447,1-1S48.053,48,47.5,48z"/><path d="M12.5,44h14c0.553,0,1-0.447,1-1s-0.447-1-1-1h-14c-0.553,0-1,0.447-1,1S11.947,44,12.5,44z"/><path d="M47.5,42h-13c-0.553,0-1,0.447-1,1s0.447,1,1,1h13c0.553,0,1-0.447,1-1S48.053,42,47.5,42z"/><path d="M31.21,43.71c0.18-0.19,0.29-0.45,0.29-0.71c0-0.261-0.11-0.521-0.29-0.7c-0.37-0.38-1.061-0.38-1.42-0.01 c-0.181,0.189-0.29,0.449-0.29,0.71c0,0.26,0.109,0.52,0.29,0.71C29.979,43.89,30.229,44,30.5,44C30.76,44,31.02,43.89,31.21,43.71 z"/><path d="M54.5,4h-25V1c0-0.553-0.447-1-1-1h-16c-0.553,0-1,0.447-1,1v3h-6c-0.553,0-1,0.447-1,1v54c0,0.553,0.447,1,1,1h49 c0.553,0,1-0.447,1-1V5C55.5,4.447,55.053,4,54.5,4z M53.5,58h-47V6h5v23c0,0.379,0.214,0.725,0.553,0.895 c0.339,0.169,0.745,0.134,1.047-0.095l7.4-5.55l7.4,5.55c0.082,0.062,0.173,0.106,0.267,0.14c0.034,0.012,0.069,0.016,0.104,0.024 c0.062,0.014,0.122,0.027,0.186,0.03c0.015,0,0.029,0.007,0.044,0.007c0.017,0,0.032-0.011,0.049-0.012 c0.136-0.006,0.272-0.031,0.399-0.094C29.286,29.725,29.5,29.379,29.5,29V6h24V58z"/></symbol><symbol id="menu" viewBox="0 0 341.333 341.333"><title>menu</title><g> <g> <rect y="277.333" width="341.333" height="42.667"/> </g> </g><g> <g> <rect y="149.333" width="341.333" height="42.667"/> </g> </g><g> <g> <rect y="21.333" width="341.333" height="42.667"/> </g> </g></symbol><symbol id="close" viewBox="0 0 365.696 365.696"><title>close</title><path d="m243.1875 182.859375 113.132812-113.132813c12.5-12.5 12.5-32.765624 0-45.246093l-15.082031-15.082031c-12.503906-12.503907-32.769531-12.503907-45.25 0l-113.128906 113.128906-113.132813-113.152344c-12.5-12.5-32.765624-12.5-45.246093 0l-15.105469 15.082031c-12.5 12.503907-12.5 32.769531 0 45.25l113.152344 113.152344-113.128906 113.128906c-12.503907 12.503907-12.503907 32.769531 0 45.25l15.082031 15.082031c12.5 12.5 32.765625 12.5 45.246093 0l113.132813-113.132812 113.128906 113.132812c12.503907 12.5 32.769531 12.5 45.25 0l15.082031-15.082031c12.5-12.503906 12.5-32.769531 0-45.25zm0 0"/></symbol><symbol id="phone" viewBox="0 0 384 384"><title>phone</title><path d="M353.188,252.052c-23.51,0-46.594-3.677-68.469-10.906c-10.719-3.656-23.896-0.302-30.438,6.417l-43.177,32.594 c-50.073-26.729-80.917-57.563-107.281-107.26l31.635-42.052c8.219-8.208,11.167-20.198,7.635-31.448 c-7.26-21.99-10.948-45.063-10.948-68.583C132.146,13.823,118.323,0,101.333,0H30.813C13.823,0,0,13.823,0,30.813 C0,225.563,158.438,384,353.188,384c16.99,0,30.813-13.823,30.813-30.813v-70.323C384,265.875,370.177,252.052,353.188,252.052z"/></symbol><symbol id="cart" viewBox="0 0 511.728 511.728"><title>cart</title><path d="m147.925 379.116c-22.357-1.142-21.936-32.588-.001-33.68 62.135.216 226.021.058 290.132.103 17.535 0 32.537-11.933 36.481-29.017l36.404-157.641c2.085-9.026-.019-18.368-5.771-25.629s-14.363-11.484-23.626-11.484c-25.791 0-244.716-.991-356.849-1.438l-17.775-65.953c-4.267-15.761-18.65-26.768-34.978-26.768h-56.942c-8.284 0-15 6.716-15 15s6.716 15 15 15h56.942c2.811 0 5.286 1.895 6.017 4.592l68.265 253.276c-12.003.436-23.183 5.318-31.661 13.92-8.908 9.04-13.692 21.006-13.471 33.695.442 25.377 21.451 46.023 46.833 46.023h21.872c-3.251 6.824-5.076 14.453-5.076 22.501 0 28.95 23.552 52.502 52.502 52.502s52.502-23.552 52.502-52.502c0-8.049-1.826-15.677-5.077-22.501h94.716c-3.248 6.822-5.073 14.447-5.073 22.493 0 28.95 23.553 52.502 52.502 52.502 28.95 0 52.503-23.553 52.503-52.502 0-8.359-1.974-16.263-5.464-23.285 5.936-1.999 10.216-7.598 10.216-14.207 0-8.284-6.716-15-15-15zm91.799 52.501c0 12.408-10.094 22.502-22.502 22.502s-22.502-10.094-22.502-22.502c0-12.401 10.084-22.491 22.483-22.501h.038c12.399.01 22.483 10.1 22.483 22.501zm167.07 22.494c-12.407 0-22.502-10.095-22.502-22.502 0-12.285 9.898-22.296 22.137-22.493h.731c12.24.197 22.138 10.208 22.138 22.493-.001 12.407-10.096 22.502-22.504 22.502zm74.86-302.233c.089.112.076.165.057.251l-15.339 66.425h-51.942l8.845-67.023 58.149.234c.089.002.142.002.23.113zm-154.645 163.66v-66.984h53.202l-8.84 66.984zm-74.382 0-8.912-66.984h53.294v66.984zm-69.053 0h-.047c-3.656-.001-6.877-2.467-7.828-5.98l-16.442-61.004h54.193l8.912 66.984zm56.149-96.983-9.021-67.799 66.306.267v67.532zm87.286 0v-67.411l66.022.266-8.861 67.145zm-126.588-67.922 9.037 67.921h-58.287l-18.38-68.194zm237.635 164.905h-36.426l8.84-66.984h48.973l-14.137 61.217c-.784 3.396-3.765 5.767-7.25 5.767z"/></symbol><symbol id="contract" viewBox="0 0 64 64"><title>contract</title><path d="m63 21.536c0-2.501-2.035-4.536-4.536-4.536-1.211 0-2.351.472-3.207 1.329l-2.964 2.964-3.293 3.293v-9.666c3.387-.488 6-3.401 6-6.92 0-3.86-3.14-7-7-7h-40c-3.86 0-7 3.14-7 7v50c0 .552.448 1 1 1h5v3c0 .552.448 1 1 1h40c.552 0 1-.448 1-1v-24.586l9.707-9.707 1.027-1.027c-.518 2.58-1.781 4.952-3.683 6.855l-4.757 4.757 1.414 1.414 4.757-4.757c2.838-2.838 4.425-6.586 4.518-10.585.647-.802 1.017-1.782 1.017-2.828zm-6.329-1.793c.479-.479 1.116-.743 1.793-.743 1.398 0 2.536 1.138 2.536 2.536 0 .677-.264 1.314-.743 1.793l-2.257 2.257-3.586-3.586zm-3.671 3.671 1.086 1.086-12.586 12.586-1.086-1.086zm-23.783 26.389 2.057-4.115 3.038 3.038-4.115 2.057zm3.197-5.803 6.586-6.586 3.586 3.586-6.586 6.586zm15.586-41c2.757 0 5 2.243 5 5s-2.243 5-5 5h-35.11c1.3-1.272 2.11-3.042 2.11-5s-.81-3.728-2.11-5zm-39 9.899v-2.899c0-.551.449-1 1-1h2.899c-.399 1.956-1.943 3.5-3.899 3.899zm-6 44.101v-49c0-2.757 2.243-5 5-5 2.414 0 4.434 1.721 4.899 4h-2.899c-1.654 0-3 1.346-3 3v47zm44 4h-38v-46h38v11.586l-4.414 4.414h-29.586v2h27.586l-2 2h-25.586v2h23.586l-6.293 6.293c-.078.078-.129.171-.176.265l-.011-.006-3 6c-.192.385-.117.85.188 1.154l.292.294-2.293 2.293 1.414 1.414 2.293-2.293.293.293c.192.192.448.293.707.293.151 0 .305-.035.447-.105l6-3-.006-.011c.094-.047.187-.098.265-.176l8-8 2.294-2.294zm-3-21.414-1.086-1.086 12.586-12.586 1.086 1.086z"/><path d="m13 19h30v2h-30z"/><path d="m13 23h30v2h-30z"/><path d="m13 27h30v2h-30z"/><path d="m13 51h11v2h-11z"/><path d="m13 55h30v2h-30z"/></symbol><symbol id="document" viewBox="0 0 480 480"><title>document</title><g> <g> <path d="M160,344h-16c-4.418,0-8,3.582-8,8s3.582,8,8,8h16c4.418,0,8-3.582,8-8S164.418,344,160,344z"/> </g> </g><g> <g> <path d="M384,344H192c-4.418,0-8,3.582-8,8s3.582,8,8,8h192c4.418,0,8-3.582,8-8S388.418,344,384,344z"/> </g> </g><g> <g> <path d="M160,296h-16c-4.418,0-8,3.582-8,8s3.582,8,8,8h16c4.418,0,8-3.582,8-8S164.418,296,160,296z"/> </g> </g><g> <g> <path d="M384,296H192c-4.418,0-8,3.582-8,8s3.582,8,8,8h192c4.418,0,8-3.582,8-8S388.418,296,384,296z"/> </g> </g><g> <g> <path d="M160,248h-16c-4.418,0-8,3.582-8,8s3.582,8,8,8h16c4.418,0,8-3.582,8-8S164.418,248,160,248z"/> </g> </g><g> <g> <path d="M384,248H192c-4.418,0-8,3.582-8,8s3.582,8,8,8h192c4.418,0,8-3.582,8-8S388.418,248,384,248z"/> </g> </g><g> <g> <path d="M160,200h-16c-4.418,0-8,3.582-8,8s3.582,8,8,8h16c4.418,0,8-3.582,8-8S164.418,200,160,200z"/> </g> </g><g> <g> <path d="M384,200H192c-4.418,0-8,3.582-8,8s3.582,8,8,8h192c4.418,0,8-3.582,8-8S388.418,200,384,200z"/> </g> </g><g> <g> <path d="M160,152h-16c-4.418,0-8,3.582-8,8s3.582,8,8,8h16c4.418,0,8-3.582,8-8S164.418,152,160,152z"/> </g> </g><g> <g> <path d="M384,152H192c-4.418,0-8,3.582-8,8s3.582,8,8,8h192c4.418,0,8-3.582,8-8S388.418,152,384,152z"/> </g> </g><g> <g> <path d="M439.896,119.496c-0.04-0.701-0.177-1.393-0.408-2.056c-0.088-0.256-0.152-0.504-0.264-0.752 c-0.389-0.87-0.931-1.664-1.6-2.344l-112-112c-0.68-0.669-1.474-1.211-2.344-1.6c-0.248-0.112-0.496-0.176-0.744-0.264 c-0.669-0.23-1.366-0.37-2.072-0.416C320.328,0.088,320.176,0,320,0H96c-4.418,0-8,3.582-8,8v24H48c-4.418,0-8,3.582-8,8v432 c0,4.418,3.582,8,8,8h336c4.418,0,8-3.582,8-8v-40h40c4.418,0,8-3.582,8-8V120C440,119.824,439.912,119.672,439.896,119.496z M328,27.312L412.688,112H328V27.312z M376,464H56V48h32v376c0,4.418,3.582,8,8,8h280V464z M424,416H104V16h208v104 c0,4.418,3.582,8,8,8h104V416z"/> </g> </g><g> <g> <path d="M192,72h-48c-4.418,0-8,3.582-8,8v48c0,4.418,3.582,8,8,8h48c4.418,0,8-3.582,8-8V80C200,75.582,196.418,72,192,72z M184,120h-32V88h32V120z"/> </g> </g></symbol><symbol id="presentation" viewBox="0 0 480.005 480.005"><title>presentation</title><g> <g> <path d="M40.003,0v64h16v272h168.352l-94.84,131.312c-2.589,3.583-1.783,8.587,1.8,11.176c3.583,2.589,8.587,1.783,11.176-1.8 l89.512-123.944V472c0,4.418,3.582,8,8,8s8-3.582,8-8V352.744l89.512,123.944c2.589,3.583,7.593,4.389,11.176,1.8 c3.583-2.589,4.389-7.593,1.8-11.176L255.651,336h168.352V64h16V0H40.003z M408.003,320h-336V64h336V320z M424.003,48h-368V16h368 V48z"/> </g> </g><g> <g> <path d="M373.462,226.344c-3.1-2.994-8.015-2.994-11.116,0l-58.344,58.344l-18.344-18.344c-3.124-3.123-8.188-3.123-11.312,0 c-3.123,3.124-3.123,8.188,0,11.312l24,24c3.124,3.123,8.188,3.123,11.312,0l64-64 C376.728,234.478,376.64,229.414,373.462,226.344z"/> </g> </g><g> <g> <path d="M240.003,160h-8.472c-3.781-33.395-30.133-59.747-63.528-63.528V88c0-4.418-3.582-8-8-8s-8,3.582-8,8v8.472 c-39.504,4.544-67.845,40.252-63.301,79.756c4.17,36.255,34.807,63.657,71.301,63.772c36.645-0.05,67.42-27.586,71.528-64h8.472 c4.418,0,8-3.582,8-8S244.421,160,240.003,160z M152.003,223.513c-30.617-4.376-51.889-32.743-47.513-63.36 c3.521-24.636,22.878-43.992,47.513-47.513V168c0,4.418,3.582,8,8,8h55.36C210.987,206.617,182.619,227.889,152.003,223.513z M168.003,160v-47.36c24.528,3.566,43.794,22.832,47.36,47.36H168.003z"/> </g> </g><g> <g> <rect x="88.003" y="288" width="16" height="16"/> </g> </g><g> <g> <rect x="120.003" y="288" width="120" height="16"/> </g> </g><g> <g> <rect x="88.003" y="256" width="16" height="16"/> </g> </g><g> <g> <rect x="120.003" y="256" width="120" height="16"/> </g> </g><g> <g> <rect x="264.003" y="128" width="16" height="16"/> </g> </g><g> <g> <rect x="296.003" y="128" width="96" height="16"/> </g> </g><g> <g> <rect x="264.003" y="96" width="16" height="16"/> </g> </g><g> <g> <rect x="296.003" y="96" width="96" height="16"/> </g> </g><g> <g> <rect x="264.003" y="192" width="16" height="16"/> </g> </g><g> <g> <rect x="296.003" y="192" width="96" height="16"/> </g> </g><g> <g> <rect x="264.003" y="160" width="16" height="16"/> </g> </g><g> <g> <rect x="296.003" y="160" width="96" height="16"/> </g> </g></symbol><symbol id="calendar-1" viewBox="0 0 480 480"><title>calendar-1</title><g> <g> <path d="M472,40h-56V8c0-4.418-3.582-8-8-8h-32c-4.418,0-8,3.582-8,8v32h-80V8c0-4.418-3.582-8-8-8h-32c-4.418,0-8,3.582-8,8v32 h-80V8c0-4.418-3.582-8-8-8h-32c-4.418,0-8,3.582-8,8v32H56c-4.418,0-8,3.582-8,8v64H8c-4.418,0-8,3.582-8,8v352 c0,4.418,3.582,8,8,8h368c4.418,0,8-3.582,8-8v-40h88c4.418,0,8-3.582,8-8V48C480,43.582,476.418,40,472,40z M384,16h16v56h-16V16 z M256,16h16v56h-16V16z M128,16h16v56h-16V16z M16,128h32v56H16V128z M368,464H16V200h32v224c0,4.418,3.582,8,8,8h312V464z M464,416H64V128h400V416z M464,112H64V56h48v24c0,4.418,3.582,8,8,8h32c4.418,0,8-3.582,8-8V56h80v24c0,4.418,3.582,8,8,8h32 c4.418,0,8-3.582,8-8V56h80v24c0,4.418,3.582,8,8,8h32c4.418,0,8-3.582,8-8V56h48V112z"/> </g> </g><g> <g> <path d="M152,160H88c-4.418,0-8,3.582-8,8v48c0,4.418,3.582,8,8,8h64c4.418,0,8-3.582,8-8v-48C160,163.582,156.418,160,152,160z M144,208H96v-32h48V208z"/> </g> </g><g> <g> <path d="M248,160h-64c-4.418,0-8,3.582-8,8v48c0,4.418,3.582,8,8,8h64c4.418,0,8-3.582,8-8v-48C256,163.582,252.418,160,248,160z M240,208h-48v-32h48V208z"/> </g> </g><g> <g> <path d="M344,160h-64c-4.418,0-8,3.582-8,8v48c0,4.418,3.582,8,8,8h64c4.418,0,8-3.582,8-8v-48C352,163.582,348.418,160,344,160z M336,208h-48v-32h48V208z"/> </g> </g><g> <g> <path d="M440,160h-64c-4.418,0-8,3.582-8,8v48c0,4.418,3.582,8,8,8h64c4.418,0,8-3.582,8-8v-48C448,163.582,444.418,160,440,160z M432,208h-48v-32h48V208z"/> </g> </g><g> <g> <path d="M248,240h-64c-4.418,0-8,3.582-8,8v48c0,4.418,3.582,8,8,8h64c4.418,0,8-3.582,8-8v-48C256,243.582,252.418,240,248,240z M240,288h-48v-32h48V288z"/> </g> </g><g> <g> <path d="M344,240h-64c-4.418,0-8,3.582-8,8v48c0,4.418,3.582,8,8,8h64c4.418,0,8-3.582,8-8v-48C352,243.582,348.418,240,344,240z M336,288h-48v-32h48V288z"/> </g> </g><g> <g> <path d="M440,240h-64c-4.418,0-8,3.582-8,8v48c0,4.418,3.582,8,8,8h64c4.418,0,8-3.582,8-8v-48C448,243.582,444.418,240,440,240z M432,288h-48v-32h48V288z"/> </g> </g><g> <g> <path d="M152,320H88c-4.418,0-8,3.582-8,8v48c0,4.418,3.582,8,8,8h64c4.418,0,8-3.582,8-8v-48C160,323.582,156.418,320,152,320z M144,368H96v-32h48V368z"/> </g> </g><g> <g> <path d="M248,320h-64c-4.418,0-8,3.582-8,8v48c0,4.418,3.582,8,8,8h64c4.418,0,8-3.582,8-8v-48C256,323.582,252.418,320,248,320z M240,368h-48v-32h48V368z"/> </g> </g><g> <g> <path d="M344,320h-64c-4.418,0-8,3.582-8,8v48c0,4.418,3.582,8,8,8h64c4.418,0,8-3.582,8-8v-48C352,323.582,348.418,320,344,320z M336,368h-48v-32h48V368z"/> </g> </g><g> <g> <path d="M440,320h-64c-4.418,0-8,3.582-8,8v48c0,4.418,3.582,8,8,8h64c4.418,0,8-3.582,8-8v-48C448,323.582,444.418,320,440,320z M432,368h-48v-32h48V368z"/> </g> </g><g> <g> <path d="M144,264c-8.837,0-16-7.163-16-16c0-4.418-3.582-8-8-8s-8,3.582-8,8c0,8.837-7.163,16-16,16c-4.418,0-8,3.582-8,8 s3.582,8,8,8c8.837,0,16,7.163,16,16c0,4.418,3.582,8,8,8s8-3.582,8-8c0-8.837,7.163-16,16-16c4.418,0,8-3.582,8-8 S148.418,264,144,264z M120,274.856c-0.887-1.015-1.841-1.969-2.856-2.856c1.015-0.887,1.969-1.841,2.856-2.856 c0.887,1.015,1.841,1.969,2.856,2.856C121.841,272.887,120.887,273.841,120,274.856z"/> </g> </g></symbol><symbol id="folder-2" viewBox="0 0 480 480"><title>folder-2</title><g> <g> <path d="M472,152h-24v-40c0-4.418-3.582-8-8-8h-24V64c0-4.418-3.582-8-8-8H40C17.92,56.026,0.026,73.92,0,96v320 c0,4.418,3.582,8,8,8h432c22.08-0.026,39.974-17.92,40-40V160C480,155.582,476.418,152,472,152z M176,72h224v32H176V72z M176,120 h256v32H176V120z M464,384c0,13.255-10.745,24-24,24H16V96c0-13.255,10.745-24,24-24h120v88c0,4.418,3.582,8,8,8h296V384z"/> </g> </g><g> <g> <rect x="32" y="376" width="32" height="16"/> </g> </g><g> <g> <rect x="80" y="376" width="144" height="16"/> </g> </g></symbol><symbol id="dashboard" viewBox="0 0 512 512"><title>dashboard</title><path d="M366.292,215.99L241.417,325.781c-0.167,0.146-0.333,0.292-0.479,0.448c-4.042,4.021-6.271,9.385-6.271,15.104 c0,11.76,9.563,21.333,21.333,21.333c5.667,0,11.021-2.208,15.563-6.75l109.792-124.875c3.708-4.219,3.5-10.604-0.479-14.583 C376.896,212.49,370.542,212.281,366.292,215.99z"/><path d="M256,85.333c-141.167,0-256,114.844-256,256c0,26.479,4.104,52.688,12.167,77.917c1.417,4.417,5.521,7.417,10.167,7.417 h467.333c4.646,0,8.75-3,10.167-7.417C507.896,394.021,512,367.813,512,341.333C512,200.177,397.167,85.333,256,85.333z M458.667,352h31.26c-0.824,18.04-3.237,35.947-8.177,53.333H30.25c-4.94-17.387-7.353-35.293-8.177-53.333h31.26 C59.229,352,64,347.229,64,341.333c0-5.896-4.771-10.667-10.667-10.667h-31.46c1.581-34.919,10.68-67.865,25.948-97.208 l27.324,15.781c1.688,0.969,3.521,1.427,5.333,1.427c3.667,0,7.271-1.906,9.229-5.333c2.958-5.104,1.208-11.625-3.896-14.573 l-27.263-15.746c18.323-28.539,42.602-52.816,71.142-71.138l15.746,27.28c1.958,3.417,5.563,5.333,9.229,5.333 c1.813,0,3.646-0.458,5.333-1.427c5.104-2.948,6.854-9.469,3.896-14.573l-15.777-27.332c29.345-15.27,62.293-24.37,97.215-25.951 v31.46c0,5.896,4.771,10.667,10.667,10.667s10.667-4.771,10.667-10.667v-31.46c34.922,1.581,67.87,10.681,97.215,25.951 l-15.777,27.332c-2.958,5.104-1.208,11.625,3.896,14.573c1.688,0.969,3.521,1.427,5.333,1.427c3.667,0,7.271-1.917,9.229-5.333 l15.746-27.28c28.54,18.322,52.819,42.599,71.142,71.138l-27.263,15.746c-5.104,2.948-6.854,9.469-3.896,14.573 c1.958,3.427,5.563,5.333,9.229,5.333c1.812,0,3.646-0.458,5.333-1.427l27.324-15.781c15.268,29.344,24.367,62.289,25.948,97.208 h-31.46c-5.896,0-10.667,4.771-10.667,10.667C448,347.229,452.771,352,458.667,352z"/></symbol><symbol id="preview" viewBox="0 0 456.795 456.795"><title>preview</title><path d="M448.947,218.475c-0.922-1.168-23.055-28.933-61-56.81c-50.705-37.253-105.877-56.944-159.551-56.944 c-53.672,0-108.844,19.691-159.551,56.944c-37.944,27.876-60.077,55.642-61,56.81L0,228.397l7.846,9.923 c0.923,1.168,23.056,28.934,61,56.811c50.707,37.252,105.879,56.943,159.551,56.943c53.673,0,108.845-19.691,159.55-56.943 c37.945-27.877,60.078-55.643,61-56.811l7.848-9.923L448.947,218.475z M228.396,315.039c-47.774,0-86.642-38.867-86.642-86.642 c0-7.485,0.954-14.751,2.747-21.684l-19.781-3.329c-1.938,8.025-2.966,16.401-2.966,25.013c0,30.86,13.182,58.696,34.204,78.187 c-27.061-9.996-50.072-24.023-67.439-36.709c-21.516-15.715-37.641-31.609-46.834-41.478c9.197-9.872,25.32-25.764,46.834-41.478 c17.367-12.686,40.379-26.713,67.439-36.71l13.27,14.958c15.498-14.512,36.312-23.412,59.168-23.412 c47.774,0,86.641,38.867,86.641,86.642C315.037,276.172,276.17,315.039,228.396,315.039z M368.273,269.875 c-17.369,12.686-40.379,26.713-67.439,36.709c21.021-19.49,34.203-47.326,34.203-78.188s-13.182-58.697-34.203-78.188 c27.061,9.997,50.07,24.024,67.439,36.71c21.516,15.715,37.641,31.609,46.834,41.477 C405.91,238.269,389.787,254.162,368.273,269.875z"/><path d="M173.261,211.555c-1.626,5.329-2.507,10.982-2.507,16.843c0,31.834,25.807,57.642,57.642,57.642 c31.834,0,57.641-25.807,57.641-57.642s-25.807-57.642-57.641-57.642c-15.506,0-29.571,6.134-39.932,16.094l28.432,32.048 L173.261,211.555z"/></symbol><symbol id="forward" viewBox="0 0 24 24"><title>forward</title><path d="m23.772 10.462-8.5-8.25c-.216-.21-.539-.269-.814-.153-.277.118-.458.39-.458.691v4.252c-7.743.134-14 6.474-14 14.248 0 .342.241.622.572.708.059.015.118.022.177.022.274 0 .541-.157.678-.404 2.245-4.056 6.519-6.576 11.155-6.576h1.418v4.25c0 .301.181.573.458.691.274.116.599.057.814-.153l8.5-8.25c.146-.141.228-.335.228-.538s-.082-.397-.228-.538z"/></symbol><symbol id="back" viewBox="0 0 24 24"><title>back</title><path d="m10 7.002v-4.252c0-.301-.181-.573-.458-.691-.276-.117-.599-.058-.814.153l-8.5 8.25c-.146.141-.228.335-.228.538s.082.397.228.538l8.5 8.25c.217.21.539.269.814.153.277-.118.458-.39.458-.691v-4.25h1.418c4.636 0 8.91 2.52 11.153 6.572l.021.038c.134.244.388.39.658.39.062 0 .124-.007.186-.023.332-.085.564-.384.564-.727 0-7.774-6.257-14.114-14-14.248z"/></symbol><symbol id="forward-outline" viewBox="0 0 24 24"><title>forward-outline</title><path d="m.501 21.999c-.041 0-.083-.005-.124-.016-.221-.057-.375-.255-.376-.483l-.001-.429s0 0 0-.001c0-7.735 6.274-14.031 14-14.07v-4.5c0-.2.119-.38.302-.459.186-.081.396-.042.542.096l9 8.5c.099.094.156.225.156.363s-.057.269-.156.363l-9 8.5c-.146.138-.355.177-.542.096-.183-.079-.302-.259-.302-.459v-4.5h-1.627c-4.752 0-9.134 2.583-11.435 6.741-.089.161-.258.258-.437.258zm13.569-13.999c-6.74 0-12.305 5.129-12.998 11.688 2.632-3.547 6.813-5.688 11.301-5.688h2.127c.276 0 .5.224.5.5v3.84l7.771-7.34-7.771-7.34v3.84c0 .276-.224.5-.5.5z"/></symbol><symbol id="back-outline" viewBox="0 0 24 24"><title>back-outline</title><path d="m23.5 22c-.179 0-.348-.096-.438-.258-2.301-4.159-6.683-6.742-11.435-6.742h-1.627v4.5c0 .2-.119.38-.302.459-.186.081-.397.042-.542-.096l-9-8.5c-.099-.094-.156-.225-.156-.363s.057-.269.156-.363l9-8.5c.146-.137.358-.176.542-.096.183.079.302.259.302.459v4.5c7.726.039 14 6.335 14 14.07v.43c0 .228-.154.427-.375.484-.042.011-.084.016-.125.016zm-14-8h2.127c4.488 0 8.67 2.14 11.301 5.688-.693-6.56-6.258-11.688-12.998-11.688h-.43c-.276 0-.5-.224-.5-.5v-3.84l-7.771 7.34 7.771 7.34v-3.84c0-.276.224-.5.5-.5z"/></symbol><symbol id="download" viewBox="0 0 512 512"><title>download</title><g> <g> <path d="M382.56,233.376C379.968,227.648,374.272,224,368,224h-64V16c0-8.832-7.168-16-16-16h-64c-8.832,0-16,7.168-16,16v208h-64 c-6.272,0-11.968,3.68-14.56,9.376c-2.624,5.728-1.6,12.416,2.528,17.152l112,128c3.04,3.488,7.424,5.472,12.032,5.472 c4.608,0,8.992-2.016,12.032-5.472l112-128C384.192,245.824,385.152,239.104,382.56,233.376z"/> </g> </g><g> <g> <path d="M432,352v96H80v-96H16v128c0,17.696,14.336,32,32,32h416c17.696,0,32-14.304,32-32V352H432z"/> </g> </g></symbol><symbol id="upload" viewBox="0 0 512 512"><title>upload</title><g> <g> <path d="M380.032,133.472l-112-128C264.992,2.016,260.608,0,256,0c-4.608,0-8.992,2.016-12.032,5.472l-112,128 c-4.128,4.736-5.152,11.424-2.528,17.152C132.032,156.32,137.728,160,144,160h64v208c0,8.832,7.168,16,16,16h64 c8.832,0,16-7.168,16-16V160h64c6.272,0,11.968-3.648,14.56-9.376C385.152,144.896,384.192,138.176,380.032,133.472z"/> </g> </g><g> <g> <path d="M432,352v96H80v-96H16v128c0,17.696,14.336,32,32,32h416c17.696,0,32-14.304,32-32V352H432z"/> </g> </g></symbol></svg>